/* XPM */
static char * NORTH_xpm[] = {
"100 100 75 1",
" 	c #736B58",
".	c #665E45",
"+	c #5F563B",
"@	c #48412E",
"#	c #2E2816",
"$	c #211A05",
"%	c #6D654F",
"&	c #574D2E",
"*	c #3D3520",
"=	c #2A2516",
"-	c #211A06",
";	c #211905",
">	c #7C7767",
",	c #787260",
"'	c #171204",
")	c #201905",
"!	c #1D1A10",
"~	c #252114",
"{	c #201906",
"]	c #161103",
"^	c #665E46",
"/	c #3D3620",
"(	c #292516",
"_	c #1E1A10",
":	c #312B1A",
"<	c #1C1A10",
"[	c #2C2717",
"}	c #4E452A",
"|	c #3F3721",
"1	c #36301D",
"2	c #463E25",
"3	c #39321E",
"4	c #100D03",
"5	c #332C1B",
"6	c #7C7667",
"7	c #2D2715",
"8	c #787160",
"9	c #272315",
"0	c #807B6D",
"a	c #141003",
"b	c #0A0901",
"c	c #0B0901",
"d	c #1D1805",
"e	c #0F0D03",
"f	c #1A1505",
"g	c #1C1704",
"h	c #2E2815",
"i	c #423C29",
"j	c #2E2818",
"k	c #574F36",
"l	c #221E12",
"m	c #1C1705",
"n	c #262114",
"o	c #201C0F",
"p	c #1C1804",
"q	c #0F0C03",
"r	c #3A3525",
"s	c #13110B",
"t	c #292416",
"u	c #1C1910",
"v	c #363328",
"w	c #2E2A1C",
"x	c #14120B",
"y	c #1D1804",
"z	c #15130B",
"A	c #5C543F",
"B	c #181304",
"C	c #554D35",
"D	c #18150D",
"E	c #15120B",
"F	c #0E0D07",
"G	c #231F12",
"H	c #0A0805",
"I	c #1B180E",
"J	c #1A160E",
" ...+++++++++++++++++++++++++++++++++++++@#$.%.%..% % %%%..&*=**&&&**--&&&&&&&&&&&&&&&&&&&*-;%>...+.",
".++&&&&&&&&&&&&&&&&&&&&&&&&&&&&&&&&&&&&&&*-;%,+......++++&&&&***&&&&='-&&&&&&&&&&&&&&&&&&&*-$.,+.%%%",
"&&&&&&&&&&&&&&&&&&&&&&&&&&&&&&&&&&&&&&&&&*-),%.&&&&&&&&&&&&&&&&&&&&&*'-&&&&&&&&&&&&&&&&&&&*-;%%&&&&&",
"&&&&&&&&&&&&&&&&&&&&&&&&&&&&&&&&&&&&&&&&&*-) +.&&&&&&&&&&&&&&&&&&&&&*'-&&&&&&&&&&&&&&&&&&&*-$. &&&&&",
"&&&&&&&&&&&&&&&&&&&&&&&&&&&&&&&&&&&&&&&&&=-) %+&&&&&&&&&&&&&&&&&&&&&*'-&&&&&&&&&&&&&&&&&&&*-$. &&&&&",
"&&&&&&&&&&&&&&&&&&&&&&&&&&&&&&&&&&&&&&&&*=-) %&&&&&&&&&&&&&&&&&&&&&&*'-&&&&&&&&&&&&&&&&&&&*-;%%&&&&&",
"&&&&&&&&&&&&&&&&&&&&&&&&&&&&&&&&&&&&&&&&=!'~%.&&&&&&&&&&&&&&&&&&&&&**'-&&&&&&&&&&&&&&&&&&&*-$.+&&&&&",
"&&&&&&&&&&&&&&&&&&&&&&&&&&&&&&&&&&&&&&***='# +&&&&&&&&&&&&&&&&&&&&&**--{&&&&&&*&&&&&&&&&&*='$.&&&&&&",
"&&&&&&&&&&&&&&&&&&&&&&&&&&&&&&&&&&&&&****'-#%&&&&&&&&&&&&&&&&&&&&&***---****************==--'@*&&&&&",
"*****************************************'-#.&&&&&&&&&&&&&&&&&&&&&*=*---------''''''''''-----'-*****",
"))))))#----''''''''------------------------$.&&&&&&&&&&&&&&&&&&&&&&**----;;$$$$$$$$$$$$$$--$$]];)--)",
"%...%.+&*'---$$$$$$$$$$$$$$$$$$$$$$--------$.&&&&&&&&&&&&&&&&&&&&&&**--)+%%..............++......++%",
"+&&&&&&.+*'-)..^^^^^^^^^^^^^^^^^^^^++++~----+&&&&&&&&&&&&&&&&&&&&&&**-#+.++&++++++++++++.%%%...+++++",
"&&&&&&&&&*-$.%+++++++++++++&&&&&&&&&&&&*---$.&&&&&&&&&&&&&&&&&&&&&&**-#,&&&&&&&&&&&&&+++++&&&&&&&&&&",
"&&&&&&&&&*-$.%%^^+++++&&&&&&&&&&&&&&&&&*---$.+&&&&&&&&&&&&&&&&&&&&&**-)%.&&&&&&&&&&//////&&&&&&&&&&&",
"&&&&&&&&&*-$.++++&&&&&&&&&&&&&&&&&&&&&&*----++&&&&&&&&&&&&&&&&&&&&&**-;%.&&&&&&&//====/////&&&&&&&&&",
"&&&&&&&&&*--+&&&&&&&&&&&&&&&&&&&&&&&&&&*----++&&&&&&&&&&&&&&&&&&&&&**-;%.&&&&&/////&&&//&/=/&&&&&&&&",
"&&&&&&&&&*--+&&&&&&&&&&&&&&&&&&&&&&&&&&*----++&&&&&&&&&&&&&&&&&&&&&**-) .&&&&&(//&/////////=//&&&&&&",
"&&&&&&&&&*--+&&&&&&&&&&&&&&&&&&&&&&&&&**----++&&&&&&&&&&&&&&&&&&&&&**-) +&&&&&&&///&/==/&&&////&&&&&",
"&&&&&&&&&*--+&&&&&&&&&&&&&&&&&&&&&&&&&**----++&&&&&&&&&&&&&&&&&&&&&**-) +&&&&&&//&&&/_=/&&&&////&&&&",
"&&&&&&&&&*--+&&&&&&&&&&&&&&&&&&&&&&&&&*:----++&&&&&&&&&&&&&&&&&&&&&**-) +&&&&&//&&&&/=//&//&&////&&&",
"&&&&&&&&&*--+&&&&&&&&&&&&&&&&&&&&&&&&&*:----+&&&&&&&&&&&&&&&&&&&&&&<=-) .&&&&&//&&&&&&&&///&&&&&&&&&",
"&&&&&&&&&*-$.&&&&&&&&&&&&&&&&&&&&&&&&&[*----+&&&&&&&&&&&&&&&&&&&&&*==-) .&&&&&&//////////&&&&&&&&&&&",
"&&&&&&&&&*--++&&&&&&&&&&&&&&&&&&&&&&}|1*----+&&&&&&&&&&&&&&&&&&&&*===-) +&&&&&&&&&&////&&&&&&&&&&&&&",
"&&&&&&&&&*--++&&&&&&&&&&&&&&&&&&&&&}231*-----********************===4-) .&&&&&&&&&&//&/&&//&&&&&&&&&",
"&&&&&&&&&*-$.+&&&&&&&&&&&&&&&&&&&&&}|3*1--------------'''''''------'--) .&&&&&&&&&&//&/&&&//&&&&&&&&",
"&&&&&&&&&*-$.+&&&&&&&&&&&&&&&&&&&&}}5|*1-----$);;$$;;;;;;$$$)$$$$$----;%%&&&&&&&&&&=/&&/////&&&&&&&&",
"&&&&&&&&&*-$.+&&&&&&&&&&&&&&&&&&&&}33|:1----)^6%%^^%%%%%%^^^ ^^^^^+---$.%&&&&&&&&&&//&&///&&&&&&&&&&",
"&&&&&&&&&*-;%+&&&&&&&&&&&&&&&&&&&}2}||:1'-#7^ ^^^+++++++^^^^&&&&&&&*--$..&&&&&&&&&&//&&&&&&&&&&&&&&&",
"&&&&&&&&&*--++&&&&&&&&&&&&&&&&&&&}2}3|1:--78% +&&&&&&&&&&&&&&&&&&&&*--$.++&&&&&&&&&22&&&&&&&&&&&&&&&",
"&&&&&&&&&*--+&&&&&&&&&&&&&&&&&&&&&&&&}2:-) %+&&&&&&&&&&&&&&&&&&&&&&*--$.+&&&&&&&&&}2|}&&&&&&&&&&&&&&",
"&&&&&&&&&=--+&&&&&&&&&&&&&&&&&&&&&&&&&9:-)0%+&&&&&&&&&&&&&&&&&&&&&&*--$.+&&&&&&222|222&&&&&&&&&&&&&&",
"**&&&&&&*=--&&&&&&&&&**********&&&&&&&*1-]%%&&&&&&&&&&&&&&&&&&&&&&&*---+&&&&&}2&}|9}2|&&&&&&&******&",
"*==****=='---***=====****====**=======1a'-+^&&&&&&&&&&&&&&&&&&&&&&&*----*****11*1[**11111**==*******",
"-------''------------'44b44cc4'-------dd-$^+&&&&&&&&&&&&&&&&&&&&&&&*----e----d-ff---d--------------'",
")##));$$;;;;$$$$$$$$-------))))))));;;$--$^+&&&&&&&&&&&&&&&&&&&&&&&*----###);;)gg))$$$--------$)$)))",
"8  %8%^^%%%%^^^^^^^^++#---78       %%%^)-$^+&&&&&&&&&&&&&&&&&&&&&&&*---$h^%%%%8    ^^^++++)--)^ ^ 66",
"88   8%%^+++++++++++++i--;%%&&&&&&&&&&&|d$^+&&&&&&&&&&&&&&&&&&&&&&&*--$^^ %%^^&++&+++^++++&--+ ^^^88",
"^+++^+++++++++++++&&***--$^ &&&&&&&&&&&|d-+^&&&&&&&&&&&&&&&&&&&&&&&*--$^%&&&&&&&&&&&&&&&&&*-$^%++^+^",
"&&&&&&&&&&&&&&&&&&&&&&*--;%%&&&&&&&&&&&|d-+^&&&&&&&&&&&&&&&&&&&&&&&*---++&&&&&&&&&&&&&&&&&*--+++&&&&",
"&&&&&&&&&&&&&&&&&&&&&&*---+%&&&&&&&&&&&3-$^^&&&&&&&&&&&&&&&&&&&&&&&*'-$^+&&&&&&&&&&&&&&&&&*-#++&&&&&",
"&&&&&&&&&&&&&&&&&&&&&&*--$^^&&&&&&&&&&&3-$^+&&&&&&&&&&&&&&&&&&&&&&**'-$^+&&&&&&&&&&&&&&&&&*#-+&&&&&&",
"&&&&&&&////&&&&&&&&&&&*--$^^&&&&&&&&&&23-$^+&&&&&&&&&&&&&&&&&&&&&&**'--+++&&&&&&&&&&&&&&&&*--&&&&&&&",
"&&&&&///&///&&&&&&&&&&*---+^&&&&&&&&&&23-$^^&&&&&&&&&&&&&&&&&&&&&&**'--+++&&&&&&&&&&&&&&&&*--*&&&&&&",
"&&&&&//&&&//&&&&&&&&&&*--$^+&&&&&&&&&&}|-$^^&&&&&&&&&&&&&&&&&&&&&&**'--+++&&&&&&&&&&&&&&&**''*&&&&&&",
"&&&&///&&&&//&&&&&&&&&*--$^&&&&&&&&&&&2|--++&&&&&&&&&&&&}}}&&&&&&&**''-++&&&&&&&&&&&&&&&&**''*&&&&&&",
"&&&&//&&&&&//&&&&&&&&&*--#^&&&&&&&&&&&5jd-+&&&&&&&&&&&}22}2&&&&&&**=4--++&&&&&&&&&&&&&&&&**''&&&&&&&",
"&&&&//&&&&&//&&&&&&&&**--#k}}}}}}}}23j53d#+&&&*&&&&&}}222l:&&&&&&**='--+&&&&&&&&&&&&&&&&***--&&&&&&&",
"&&&&//&&&&&//&&&&&&&&**---m22}}}}}2}222d---*******=n11:**nn******=!----#***************==e---&&&&&&&",
"&&&&//&&&&&//&&&&&&&&**-------------ddd----''4''''--''--dd-------o4--------------------''----&&&&&&&",
"&&&&//&&&&&//&&&&&&&&**----#-;;;;$$$$$p$$###$$;$$----$$------$#-##---$--------------##--q4---&&&&&&&",
"&&&&///&&&&/&&&&&&&&&*=---)^+%%%%^^^^^^^^^&+^^%^^++++^^)---)+^+++++++^++++++++++++++++++&=---&&&&&&&",
"&&&&///&&&//&&&&&&&&&**'--+^^%%++^^++++^++^^+++^+++++&**--#+%++++++++^^+^++++++++++++&&++**--&&&&&&&",
"&&&&&//&&&//&&&&&&&&&**'-$^6^^&&&&&&&&&++++++++&&&&&&&&*--;^ ++&&&&&&&+&+&&&&&&&&&&&&&&&&=*--&&&&&&&",
"&&&&&&//&//&&&&&&&&&&**'-#%6++&&&&&&&&&&&&&&&&&&&&&&&&&*--#^8+&+++++++++&&&&&&&&&&&&&&&&&**'-&&&&&&&",
"&&///=/===////&&&&&&&**'-#+6+&&&&&&&&&&&&&&&&&&&&&&&&&&*--)%%&&&&&&&&&&&&&&&&&&&&&&&&&&&&*&'-&&&&&&&",
"&&//////=/////&&&&&&&**'-)% &&&&&&&&&&&&&&&&&&&&&&&&&&**--r+%&&&&&&&&&&&&&&&&&&&&&&&&&&&&&*--&&&&&&&",
"&&&&&&&///&&&&&&&&&&&**'-# 8&&&&&&&&&&&&&&&&&&&&&&&&&&**##;+%&&&&&&&&&&&&&&&&&&&&&&&&&&&&&*--&&&&&&&",
"&&&&&&&///&&&&&&&&&&&**'#h8 &&&&&&&&&&&&&&&&&&&&&&&&&&**--$^%&&&&&&&&&&&&&&&&&&&&&&&&&&&&&*--&&&&&&&",
"&&&&&&&///&&&&&&&&&&&**'-#  &&&&&&&&&&&&&&&&&&&&&&&&&&**---+%&&&&&&&&&&&&&&&&&&&&&&&&&&&&&*--&&&&&&&",
"&&&&&&&///&&&&&&&&&&&**'-#% &&&&&&&&&&&&&&&&&&&&&&&&&&=*---+^&&&&&&&&&&&&&&&&&&&&&&&&&&&&&*--&&&&&&&",
"&&&&&&&///&&&&&&&&&&&**'-#^ &&&&&&&&&&&&&&&&&&&&&&&&&&=*--;%+&&&&&&&&&&&&&&&&&&&&&&&&&&&&&=--&&&&&&&",
"&&&&&&&///&&&&&&&&&&&**'-#^ &&&&&&&&&&&&&&&&&&&&&&&&&&=*--$^^&&&&&&&&&&&&&&&&&&&&&&&&&&&&&*'-&&&&&&&",
"&&&&&&&///&&&&&&&&&&&*!'-#^ &&&&&&&&&&&&&&&&&&&&&&&&&&=*--$^^&&&&&&&&&&&&&&&&&&&&&&&&&&&&&*'-&&&&&&&",
"&&&&&&&///&&&&&&&&&&&&!'-#^%+&&&&&&&&&&&&&&&&&&&&&&&&&=*--$^^&&&&&&&&&&&&&&&&&&&&&&&&&&&&&*--&&&&&&&",
"&&&&&&&///&&&&&&&&&&&&!'-#^%+&&&&&&&&&&&&&&&&&&&&&&&&&=*---+^&&&&&&&&&&&&&&&&&&&&&&&&&&&&&*--&&&&&&&",
"&&&&&&&///&&&&&&&&&&&&!'-#^%+&&&&&&&&&&&&&&&&&&&&&&&&&=*---+^&&&&&&&&&&&&&&&&&&&&&&&&&&&&&*--&&&&&&&",
"&&&&&&&///&&&&&&&&&&&&='-#%%+&&&&&&&&&&&&&&&&&&&&&&&&&**--$^^&&&&&&&&&&&&&&&&&&&&&&&&&&&&&=--&&&&&&&",
"&&&&&&&/=/&&&&&&&&&**&='-#%^+&&&&&&&&&&&&&&&&&&&&&&&&&*=--$^%&&&&&&&&&&&&&&&&&&&&&&&&&&&&&=--&&&&&&&",
"&&&&&&&///&&&&&&&&&&&&='-# ++&&&&&&&&&&&&&&&&&&&&&&&&&*=---+^&&&&&&&&&&&&&&&&&&&&&&&&&&&&&=--&&&&&&&",
"&&&&&&&/=/&&&&&&&&&&&&='-#^+&&&&&&&&&&&&&&&&&&&&&&&&&&*=--$^+&&&&&&&&&&&&&&&&&&&&&&&&&&&&&=--&&&&&&&",
"&&&&&&&///&&&&&&&&&&&&='-#^+&&&&&&&&&&&&&&&&&&&&&&&&&&*=--$^+&&&&&&&&&&&&&&&&&&&&&&&&&&&&&*'-&&&&&&&",
"&&&&&&&|}&&&&&&&&&&&&&='-#^+&&&&&&&&&&&&&&&&&&&&&&&&&&*=--$^+&&&&&&&&&&&&&&&&&&&&&&&&&&&&&*--&&&&&&&",
"&&&&&}|2}}&&&&&&&&&&&&='-#^+&&&&&&&&&&&&&&&&&&&&&&&&&&=*--$^+&&&&&&&&&&&&&&&&&&&&&&&&&&&&&='-&&&&&&&",
"&&&&}2|22}}&&&&&&&&&&&='-#^+&&&&&&&&&&&&&&&&&&&&&&&&&&**--;%+&&&&&&&&&&&&&&&&&&&&&&&&&&&&*=--&&&&&&&",
"&&&}225}}&&&&&&&&&&&&*='-r ^&&&&&&&&&&&&&&&&&&&&&&&&&&==4-$^+&&&&&&&&&&&&&&&&&&&&&&&&&&&***--&&&&&&&",
"&&&25332|}&&&&&&&&&&&=*--#%^&&&&&&&&&&&&&&&&&&&&&&&&&&s!--$^&&&&&&&&&&&&&&&&&&&&&&&&&&&&=*=-'&&&&&&&",
"&&:5t5|2|}&&*****&&**='---#&***&&&&&&&&***********&*u!!*---#++&&&&&&&*v&&*&&&&&*****&&&*!*=''*******",
"**[:9[nnnnn===**=***==-----**=========*************=*!*----oww==**===*****=*==***=*====x!x'-'''==***",
"'''aa'--------'''--''-----------------''''''''--'''''4----------'''''''''''q44444''-----------------",
"$#$y)))));;;$$$;;;)#--------------------;;$;;;;;;;;)##$$$$$$$#####-----####r###-------$)#$---$$$$###",
"^%^^     %%%^^^%%%%^++++++++++++++z#--#+%%^%%%%%%%%%^%^^^^^^^^^&+++++++++^^^^+++++---#^%+^+++^^^^+^%",
"+%%^^^^^^^^%%%%^^+^+++++++&&&&&&&*=--#^^%^ %%%^^^^%^%%%%^^%^^^%^%%        %%%^^^++*--+%%%^%  %  888 ",
"+^++&&&&&&&&&&&&&&&&&&&&&&&&&&&&&*=--#%%^++^^+&&++++&+++++++++^^^+&&&&&&&&&&&&&&&&*-#^ %^+++^+&&&&&&",
"++&&&&&&&&&&&&&&&&&&&&&&&&&&&&&&&&=--#^%%%^^+++^++++++++++&&&&&&&&&&&&&&&&&&&&&&&&*##^^^&&&&&&&&&&&&",
"&&&&&&&&&&&&&&&&&&&&&&&&&&&&&&&&&&w###^^^++&&&&&&&&&&&&&&&&&&&&&&&&&&&&&&&&&&&&&&&*#-+%+&&&&&&&&&&&&",
"&&&&&&&&&&&&&&&&&&&&&&&&&&&&&&&&&&=---++++&&&&&&&&&&&&&&&&&&&&&&&&&&&&&&&&&&&&&&&&*-$^^&&&&&&&&&&&&&",
"&&&&&&&&&&&&&&&&&&&&&&&&&&&&&&&&&&=---+^++&&&&&&&&&&&&&&&&&&&&&&&&&&&&&&&&&&&&&&&&*-;%&&&&&&&&&&&&&&",
"&&&&&&&&&&&&&&&&&&&&&&&&&&&&&&&&&**--$^+&&&&&&&&&&&&&&&&&&&&&&&&&&&&&&&&&&&&&&&&&&*-;%&&&&&&&&&&&&&&",
"&&&&&&&&&&&&&&&&&&&&&&&&&&&&&&&&&**--)%+&&&&&&&&&&&&&&&&&&&&&&&&&&&&&&&&&&&&&&&&&&1--A&&&&&&&&&&&&&&",
"&&&&&&&&&&&&&&&&&&&&&&&&&&&&&&&&&**'-#^+&&&&&&&&&&&&&&&&&&&&&&&&&&&&&&&&&&&&&&&&&&1BdC&&&&&&&&&&&&&&",
"&&&&&&&&&&&&&&&&&&&&&&&&&&&&&&&&&**'-#^+&&&&&&&&&&&&&&&&&&&&&&&&&&&&&&&&&&&&&&&&&&1f-+&&&&&&&&&&&&&&",
"&&&&&&&&&&&&&&&&&&&&&&&&&&&&&&&&&=*'#;^+&&&&&&&&&&&&&&&&&&&&&&&&&&&&&&&&&&&&&&&&&}:d-+&&&&&&&&&&&&&&",
"&&&&&&&&&&&&&&&&&&&&&&&&&&&&&&&&&=*'#$^+&&&&&&&&&&&&&&&&&&&&&&&&&&&&&&&&&&&&&&&&&2:d-+&&&&&&&&&&&&&&",
"&&&&&&&&&&&&&&&&&&&&&&&&&&&&&&&&&=*#-;%^&&&&&&&&&&&&&&&&&&&&&&&&&&&&&&&&&&&&&&&&}|:f-+&&&&&&&&&&&&&&",
"&&&&&&&&&&&&&&&&&&&&&&&&&&&&&&&&&=*#-$^^&&&&&&&&&&&&&&&&&&&&&&&&&&&&&&&&&&&&&&&&}3:f-+&&&&&&&&&&&&&&",
"&&&&&&&&&&&&&&&&&&&&&&&&&&&&&&&&*!*#-$^^&&&&&&&&&&&&&&&&&&&&&&&&&&&&&&&&&&&&&&&&2jDa-+&&&&&&&&&&&&&&",
"&&&&&&&&&&&&&&&&&&&&&&&&&&&&&&&&*==#-$^^&&&&&&&&&&&&&&&&&&&&&&&&&&&&&&&&&&&&&&&}59E'-+&&&&&&&&&&&&&&",
"&&&&&&&&&&&&&&&&&&&&&&&&&&&&****!xF4--++&&&&&&&&&&&&&&&&&&&&&&&&&&&&&&&&&&&&&&}}G[E''i&&&&&&&&******",
"***********************&***=*=**xx!4--i*************************************==nHInJ''***************"};
