/* XPM */
static char * SOUTH_xpm[] = {
"100 100 72 1",
" 	c #736B58",
".	c #665E45",
"+	c #5F563B",
"@	c #48412E",
"#	c #2E2816",
"$	c #211A05",
"%	c #6D654F",
"&	c #574D2E",
"*	c #3D3520",
"=	c #2A2516",
"-	c #211A06",
";	c #211905",
">	c #7C7767",
",	c #787260",
"'	c #171204",
")	c #201905",
"!	c #1D1A10",
"~	c #252114",
"{	c #201906",
"]	c #161103",
"^	c #665E46",
"/	c #312B1A",
"(	c #1C1A10",
"_	c #2C2717",
":	c #4E452A",
"<	c #3F3721",
"[	c #36301D",
"}	c #463E25",
"|	c #39321E",
"1	c #100D03",
"2	c #332C1B",
"3	c #7C7667",
"4	c #2D2715",
"5	c #787160",
"6	c #272315",
"7	c #807B6D",
"8	c #141003",
"9	c #0A0901",
"0	c #0B0901",
"a	c #1D1805",
"b	c #0F0D03",
"c	c #1A1505",
"d	c #1C1704",
"e	c #2E2815",
"f	c #423C29",
"g	c #2E2818",
"h	c #574F36",
"i	c #221E12",
"j	c #1C1705",
"k	c #262114",
"l	c #201C0F",
"m	c #1C1804",
"n	c #0F0C03",
"o	c #3A3525",
"p	c #13110B",
"q	c #292416",
"r	c #1C1910",
"s	c #363328",
"t	c #2E2A1C",
"u	c #14120B",
"v	c #1D1804",
"w	c #15130B",
"x	c #5C543F",
"y	c #181304",
"z	c #554D35",
"A	c #18150D",
"B	c #15120B",
"C	c #0E0D07",
"D	c #231F12",
"E	c #0A0805",
"F	c #1B180E",
"G	c #1A160E",
" ...+++++++++++++++++++++++++++++++++++++@#$.%.%..% % %%%..&*=**&&&**--&&&&&&&&&&&&&&&&&&&*-;%>...+.",
".++&&&&&&&&&&&&&&&&&&&&&&&&&&&&&&&&&&&&&&*-;%,+......++++&&&&***&&&&='-&&&&&&&&&&&&&&&&&&&*-$.,+.%%%",
"&&&&&&&&&&&&&&&&&&&&&&&&&&&&&&&&&&&&&&&&&*-),%.&&&&&&&&&&&&&&&&&&&&&*'-&&&&&&&&&&&&&&&&&&&*-;%%&&&&&",
"&&&&&&&&&&&&&&&&&&&&&&&&&&&&&&&&&&&&&&&&&*-) +.&&&&&&&&&&&&&&&&&&&&&*'-&&&&&&&&&&&&&&&&&&&*-$. &&&&&",
"&&&&&&&&&&&&&&&&&&&&&&&&&&&&&&&&&&&&&&&&&=-) %+&&&&&&&&&&&&&&&&&&&&&*'-&&&&&&&&&&&&&&&&&&&*-$. &&&&&",
"&&&&&&&&&&&&&&&&&&&&&&&&&&&&&&&&&&&&&&&&*=-) %&&&&&&&&&&&&&&&&&&&&&&*'-&&&&&&&&&&&&&&&&&&&*-;%%&&&&&",
"&&&&&&&&&&&&&&&&&&&&&&&&&&&&&&&&&&&&&&&&=!'~%.&&&&&&&&&&&&&&&&&&&&&**'-&&&&&&&&&&&&&&&&&&&*-$.+&&&&&",
"&&&&&&&&&&&&&&&&&&&&&&&&&&&&&&&&&&&&&&***='# +&&&&&&&&&&&&&&&&&&&&&**--{&&&&&&*&&&&&&&&&&*='$.&&&&&&",
"&&&&&&&&&&&&&&&&&&&&&&&&&&&&&&&&&&&&&****'-#%&&&&&&&&&&&&&&&&&&&&&***---****************==--'@*&&&&&",
"*****************************************'-#.&&&&&&&&&&&&&&&&&&&&&*=*---------''''''''''-----'-*****",
"))))))#----''''''''------------------------$.&&&&&&&&&&&&&&&&&&&&&&**----;;$$$$$$$$$$$$$$--$$]];)--)",
"%...%.+&*'---$$$$$$$$$$$$$$$$$$$$$$--------$.&&&&&&&&&&&&&&&&&&&&&&**--)+%%..............++......++%",
"+&&&&&&.+*'-)..^^^^^^^^^^^^^^^^^^^^++++~----+&&&&&&&&&&&&&&&&&&&&&&**-#+.++&++++++++++++.%%%...+++++",
"&&&&&&&&&*-$.%+++++++++++++&&&&&&&&&&&&*---$.&&&&&&&&&&&&&&&&&&&&&&**-#,&&&&&&&&&&&&&+++++&&&&&&&&&&",
"&&&&&&&&&*-$.%%^^+++++&&&&&&&&&&&&&&&&&*---$.+&&&&&&&&&&&&&&&&&&&&&**-)%.&&&&&&&&&&&&&&&&&&&&&&&&&&&",
"&&&&&&&&&*-$.++++&&&&&&&&&&&&&&&&&&&&&&*----++&&&&&&&&&&&&&&&&&&&&&**-;%.&&&&&&&&&&&&&&&&&&&&&&&&&&&",
"&&&&&&&&&*--+&&&&&&&&&&&&&&&&&&&&&&&&&&*----++&&&&&&&&&&&&&&&&&&&&&**-;%.&&&&&&&&&&&&&&&&&&&&&&&&&&&",
"&&&&&&&&&*--+&&&&&&&&&&&&&&&&&&&&&&&&&&*----++&&&&&&&&&&&&&&&&&&&&&**-) .&&&&&&&&&&&&&&&&&&&&&&&&&&&",
"&&&&&&&&&*--+&&&&&&&&&&&&&&&&&&&&&&&&&**----++&&&&&&&&&&&&&&&&&&&&&**-) +&&&&&&&&&&&&&&&&&&&&&&&&&&&",
"&&&&&&&&&*--+&&&&&&&&&&&&&&&&&&&&&&&&&**----++&&&&&&&&&&&&&&&&&&&&&**-) +&&&&&&&&&&&&&&&&&&&&&&&&&&&",
"&&&&&&&&&*--+&&&&&&&&&&&&&&&&&&&&&&&&&*/----++&&&&&&&&&&&&&&&&&&&&&**-) +&&&&&&&&&&&&&&&&&&&&&&&&&&&",
"&&&&&&&&&*--+&&&&&&&&&&&&&&&&&&&&&&&&&*/----+&&&&&&&&&&&&&&&&&&&&&&(=-) .&&&&&&&&&&&&&&&&&&&&&&&&&&&",
"&&&&&&&&&*-$.&&&&&&&&&&&&&&&&&&&&&&&&&_*----+&&&&&&&&&&&&&&&&&&&&&*==-) .&&&&&&&&&&&&&&&&&&&&&&&&&&&",
"&&&&&&&&&*--++&&&&&&&&&&&&&&&&&&&&&&:<[*----+&&&&&&&&&&&&&&&&&&&&*===-) +&&&&&&&&&&&&&&&&&&&&&&&&&&&",
"&&&&&&&&&*--++&&&&&&&&&&&&&&&&&&&&&:}|[*-----********************===1-) .&&&&&&&&&&&&&&&&&&&&&&&&&&&",
"&&&&&&&&&*-$.+&&&&&&&&&&&&&&&&&&&&&:<|*[--------------'''''''------'--) .&&&&&&&&&&&&&&&&&&&&&&&&&&&",
"&&&&&&&&&*-$.+&&&&&&&&&&&&&&&&&&&&::2<*[-----$);;$$;;;;;;$$$)$$$$$----;%%&&&&&&&&&&&&&&&&&&&&&&&&&&&",
"&&&&&&&&&*-$.+&&&&&&&&&&&&&&&&&&&&:||</[----)^3%%^^%%%%%%^^^ ^^^^^+---$.%&&&&&&&&&&&&&&&&&&&&&&&&&&&",
"&&&&&&&&&*-;%+&&&&&&&&&&&&&&&&&&&:}:<</['-#4^ ^^^+++++++^^^^&&&&&&&*--$..&&&&&&&&&&&&&&&&&&&&&&&&&&&",
"&&&&&&&&&*--++&&&&&&&&&&&&&&&&&&&:}:|<[/--45% +&&&&&&&&&&&&&&&&&&&&*--$.++&&&&&&&&&}}&&&&&&&&&&&&&&&",
"&&&&&&&&&*--+&&&&&&&&&&&&&&&&&&&&&&&&:}/-) %+&&&&&&&&&&&&&&&&&&&&&&*--$.+&&&&&&&&&:}<:&&&&&&&&&&&&&&",
"&&&&&&&&&=--+&&&&&&&&&&&&&&&&&&&&&&&&&6/-)7%+&&&&&&&&&&&&&&&&&&&&&&*--$.+&&&&&&}}}<}}}&&&&&&&&&&&&&&",
"**&&&&&&*=--&&&&&&&&&**********&&&&&&&*[-]%%&&&&&&&&&&&&&&&&&&&&&&&*---+&&&&&:}&:<6:}<&&&&&&&******&",
"*==****=='---***=====****====**=======[8'-+^&&&&&&&&&&&&&&&&&&&&&&&*----*****[[*[_**[[[[[**==*******",
"-------''------------'11911001'-------aa-$^+&&&&&&&&&&&&&&&&&&&&&&&*----b----a-cc---a--------------'",
")##));$$;;;;$$$$$$$$-------))))))));;;$--$^+&&&&&&&&&&&&&&&&&&&&&&&*----###);;)dd))$$$--------$)$)))",
"5  %5%^^%%%%^^^^^^^^++#---45       %%%^)-$^+&&&&&&&&&&&&&&&&&&&&&&&*---$e^%%%%5    ^^^++++)--)^ ^ 33",
"55   5%%^+++++++++++++f--;%%&&&&&&&&&&&<a$^+&&&&&&&&&&&&&&&&&&&&&&&*--$^^ %%^^&++&+++^++++&--+ ^^^55",
"^+++^+++++++++++++&&***--$^ &&&&&&&&&&&<a-+^&&&&&&&&&&&&&&&&&&&&&&&*--$^%&&&&&&&&&&&&&&&&&*-$^%++^+^",
"&&&&&&&&&&&&&&&&&&&&&&*--;%%&&&&&&&&&&&<a-+^&&&&&&&&&&&&&&&&&&&&&&&*---++&&&&&&&&&&&&&&&&&*--+++&&&&",
"&&&&&&&&&&&&&&&&&&&&&&*---+%&&&&&&&&&&&|-$^^&&&&&&&&&&&&&&&&&&&&&&&*'-$^+&&&&&&&&&&&&&&&&&*-#++&&&&&",
"&&&&&&&&&&&&&&&&&&&&&&*--$^^&&&&&&&&&&&|-$^+&&&&&&&&&&&&&&&&&&&&&&**'-$^+&&&&&&&&&&&&&&&&&*#-+&&&&&&",
"&&&&&&&&&&&&&&&&&&&&&&*--$^^&&&&&&&&&&}|-$^+&&&&&&&&&&&&&&&&&&&&&&**'--+++&&&&&&&&&&&&&&&&*--&&&&&&&",
"&&&&&&&&&&&&&&&&&&&&&&*---+^&&&&&&&&&&}|-$^^&&&&&&&&&&&&&&&&&&&&&&**'--+++&&&&&&&&&&&&&&&&*--*&&&&&&",
"&&&&&&&&&&&&&&&&&&&&&&*--$^+&&&&&&&&&&:<-$^^&&&&&&&&&&&&&&&&&&&&&&**'--+++&&&&&&&&&&&&&&&**''*&&&&&&",
"&&&&&&&&&&&&&&&&&&&&&&*--$^&&&&&&&&&&&}<--++&&&&&&&&&&&&:::&&&&&&&**''-++&&&&&&&&&&&&&&&&**''*&&&&&&",
"&&&&&&&&&&&&&&&&&&&&&&*--#^&&&&&&&&&&&2ga-+&&&&&&&&&&&:}}:}&&&&&&**=1--++&&&&&&&&&&&&&&&&**''&&&&&&&",
"&&&&&&&&&&&&&&&&&&&&&**--#h::::::::}|g2|a#+&&&*&&&&&::}}}i/&&&&&&**='--+&&&&&&&&&&&&&&&&***--&&&&&&&",
"&&&&&&&&&&&&&&&&&&&&&**---j}}:::::}:}}}a---*******=k[[/**kk******=!----#***************==b---&&&&&&&",
"&&&&&&&&&&&&&&&&&&&&&**-------------aaa----''1''''--''--aa-------l1--------------------''----&&&&&&&",
"&&&&&&&&&&&&&&&&&&&&&**----#-;;;;$$$$$m$$###$$;$$----$$------$#-##---$--------------##--n1---&&&&&&&",
"&&&&&&&&&&&&&&&&&&&&&*=---)^+%%%%^^^^^^^^^&+^^%^^++++^^)---)+^+++++++^++++++++++++++++++&=---&&&&&&&",
"&&&&&&&&&&&&&&&&&&&&&**'--+^^%%++^^++++^++^^+++^+++++&**--#+%++++++++^^+^++++++++++++&&++**--&&&&&&&",
"&&&&&&&&&&&&&&&&&&&&&**'-$^3^^&&&&&&&&&++++++++&&&&&&&&*--;^ ++&&&&&&&+&+&&&&&&&&&&&&&&&&=*--&&&&&&&",
"&&&&&&&&&&&&&&&&&&&&&**'-#%3++&&&&&&&&&&&&&&&&&&&&&&&&&*--#^5+&+++++++++&&&&&&&&&&&&&&&&&**'-&&&&&&&",
"&&&&&&&&&&&&&&&&&&&&&**'-#+3+&&&&&&&&&&&&&&&&&&&&&&&&&&*--)%%&&&&&&&&&&&&&&&&&&&&&&&&&&&&*&'-&&&&&&&",
"&&&&&&&&&&&&&&&&&&&&&**'-)% &&&&&&&&&&&&&&&&&&&&&&&&&&**--o+%&&&&&&&&&&&&&&&&&&&&&&&&&&&&&*--&&&&&&&",
"&&&&&&&&&&&&&&&&&&&&&**'-# 5&&&&&&&&&&&&&&&&&&&&&&&&&&**##;+%&&&&&&&&&&&&&&&&&&&&&&&&&&&&&*--&&&&&&&",
"&&&&&&&&&&&&&&&&&&&&&**'#e5 &&&&&&&&&&&&&&&&&&&&&&&&&&**--$^%&&&&&&&&&&&&&&&&&&&&&&&&&&&&&*--&&&&&&&",
"&&&&&&&&&&&&&&&&&&&&&**'-#  &&&&&&&&&&&&&&&&&&&&&&&&&&**---+%&&&&&&&&&&&&&&&&&&&&&&&&&&&&&*--&&&&&&&",
"&&&&&&&&&&&&&&&&&&&&&**'-#% &&&&&&&&&&&&&&&&&&&&&&&&&&=*---+^&&&&&&&&&&&&&&&&&&&&&&&&&&&&&*--&&&&&&&",
"&&&&&&&&&&&&&&&&&&&&&**'-#^ &&&&&&&&&&&&&&&&&&&&&&&&&&=*--;%+&&&&&&&&&&&&&&&&&&&&&&&&&&&&&=--&&&&&&&",
"&&&&&&&&&&&&&&&&&&&&&**'-#^ &&&&&&&&&&&&&&&&&&&&&&&&&&=*--$^^&&&&&&&&&&&&&&&&&&&&&&&&&&&&&*'-&&&&&&&",
"&&&&&&&&&&&&&&&&&&&&&*!'-#^ &&&&&&&&&&&&&&&&&&&&&&&&&&=*--$^^&&&&&&&&&&&&&&&&&&&&&&&&&&&&&*'-&&&&&&&",
"&&&&&&&&&&&&&&&&&&&&&&!'-#^%+&&&&&&&&&&&&&&&&&&&&&&&&&=*--$^^&&&&&&&&&&&&&&&&&&&&&&&&&&&&&*--&&&&&&&",
"&&&&&&&&&&&&&&&&&&&&&&!'-#^%+&&&&&&&&&&&&&&&&&&&&&&&&&=*---+^&&&&&&&&&&&&&&&&&&&&&&&&&&&&&*--&&&&&&&",
"&&&&&&&&&&&&&&&&&&&&&&!'-#^%+&&&&&&&&&&&&&&&&&&&&&&&&&=*---+^&&&&&&&&&&&&&&&&&&&&&&&&&&&&&*--&&&&&&&",
"&&&&&&&&&&&&&&&&&&&&&&='-#%%+&&&&&&&&&&&&&&&&&&&&&&&&&**--$^^&&&&&&&&&&&&&&&&&&&&&&&&&&&&&=--&&&&&&&",
"&&&&&&&&&&&&&&&&&&&**&='-#%^+&&&&&&&&&&&&&&&&&&&&&&&&&*=--$^%&&&&&&&&&&&&&&&&&&&&&&&&&&&&&=--&&&&&&&",
"&&&&&&&&&&&&&&&&&&&&&&='-# ++&&&&&&&&&&&&&&&&&&&&&&&&&*=---+^&&&&&&&&&&&&&&&&&&&&&&&&&&&&&=--&&&&&&&",
"&&&&&&&&&&&&&&&&&&&&&&='-#^+&&&&&&&&&&&&&&&&&&&&&&&&&&*=--$^+&&&&&&&&&&&&&&&&&&&&&&&&&&&&&=--&&&&&&&",
"&&&&&&&&&&&&&&&&&&&&&&='-#^+&&&&&&&&&&&&&&&&&&&&&&&&&&*=--$^+&&&&&&&&&&&&&&&&&&&&&&&&&&&&&*'-&&&&&&&",
"&&&&&&&<:&&&&&&&&&&&&&='-#^+&&&&&&&&&&&&&&&&&&&&&&&&&&*=--$^+&&&&&&&&&&&&&&&&&&&&&&&&&&&&&*--&&&&&&&",
"&&&&&:<}::&&&&&&&&&&&&='-#^+&&&&&&&&&&&&&&&&&&&&&&&&&&=*--$^+&&&&&&&&&&&&&&&&&&&&&&&&&&&&&='-&&&&&&&",
"&&&&:}<}}::&&&&&&&&&&&='-#^+&&&&&&&&&&&&&&&&&&&&&&&&&&**--;%+&&&&&&&&&&&&&&&&&&&&&&&&&&&&*=--&&&&&&&",
"&&&:}}2::&&&&&&&&&&&&*='-o ^&&&&&&&&&&&&&&&&&&&&&&&&&&==1-$^+&&&&&&&&&&&&&&&&&&&&&&&&&&&***--&&&&&&&",
"&&&}2||}<:&&&&&&&&&&&=*--#%^&&&&&&&&&&&&&&&&&&&&&&&&&&p!--$^&&&&&&&&&&&&&&&&&&&&&&&&&&&&=*=-'&&&&&&&",
"&&/2q2<}<:&&*****&&**='---#&***&&&&&&&&***********&*r!!*---#++&&&&&&&*s&&*&&&&&*****&&&*!*=''*******",
"**_/6_kkkkk===**=***==-----**=========*************=*!*----ltt==**===*****=*==***=*====u!u'-'''==***",
"'''88'--------'''--''-----------------''''''''--'''''1----------'''''''''''n11111''-----------------",
"$#$v)))));;;$$$;;;)#--------------------;;$;;;;;;;;)##$$$$$$$#####-----####o###-------$)#$---$$$$###",
"^%^^     %%%^^^%%%%^++++++++++++++w#--#+%%^%%%%%%%%%^%^^^^^^^^^&+++++++++^^^^+++++---#^%+^+++^^^^+^%",
"+%%^^^^^^^^%%%%^^+^+++++++&&&&&&&*=--#^^%^ %%%^^^^%^%%%%^^%^^^%^%%        %%%^^^++*--+%%%^%  %  555 ",
"+^++&&&&&&&&&&&&&&&&&&&&&&&&&&&&&*=--#%%^++^^+&&++++&+++++++++^^^+&&&&&&&&&&&&&&&&*-#^ %^+++^+&&&&&&",
"++&&&&&&&&&&&&&&&&&&&&&&&&&&&&&&&&=--#^%%%^^+++^++++++++++&&&&&&&&&&&&&&&&&&&&&&&&*##^^^&&&&&&&&&&&&",
"&&&&&&&&&&&&&&&&&&&&&&&&&&&&&&&&&&t###^^^++&&&&&&&&&&&&&&&&&&&&&&&&&&&&&&&&&&&&&&&*#-+%+&&&&&&&&&&&&",
"&&&&&&&&&&&&&&&&&&&&&&&&&&&&&&&&&&=---++++&&&&&&&&&&&&&&&&&&&&&&&&&&&&&&&&&&&&&&&&*-$^^&&&&&&&&&&&&&",
"&&&&&&&&&&&&&&&&&&&&&&&&&&&&&&&&&&=---+^++&&&&&&&&&&&&&&&&&&&&&&&&&&&&&&&&&&&&&&&&*-;%&&&&&&&&&&&&&&",
"&&&&&&&&&&&&&&&&&&&&&&&&&&&&&&&&&**--$^+&&&&&&&&&&&&&&&&&&&&&&&&&&&&&&&&&&&&&&&&&&*-;%&&&&&&&&&&&&&&",
"&&&&&&&&&&&&&&&&&&&&&&&&&&&&&&&&&**--)%+&&&&&&&&&&&&&&&&&&&&&&&&&&&&&&&&&&&&&&&&&&[--x&&&&&&&&&&&&&&",
"&&&&&&&&&&&&&&&&&&&&&&&&&&&&&&&&&**'-#^+&&&&&&&&&&&&&&&&&&&&&&&&&&&&&&&&&&&&&&&&&&[yaz&&&&&&&&&&&&&&",
"&&&&&&&&&&&&&&&&&&&&&&&&&&&&&&&&&**'-#^+&&&&&&&&&&&&&&&&&&&&&&&&&&&&&&&&&&&&&&&&&&[c-+&&&&&&&&&&&&&&",
"&&&&&&&&&&&&&&&&&&&&&&&&&&&&&&&&&=*'#;^+&&&&&&&&&&&&&&&&&&&&&&&&&&&&&&&&&&&&&&&&&:/a-+&&&&&&&&&&&&&&",
"&&&&&&&&&&&&&&&&&&&&&&&&&&&&&&&&&=*'#$^+&&&&&&&&&&&&&&&&&&&&&&&&&&&&&&&&&&&&&&&&&}/a-+&&&&&&&&&&&&&&",
"&&&&&&&&&&&&&&&&&&&&&&&&&&&&&&&&&=*#-;%^&&&&&&&&&&&&&&&&&&&&&&&&&&&&&&&&&&&&&&&&:</c-+&&&&&&&&&&&&&&",
"&&&&&&&&&&&&&&&&&&&&&&&&&&&&&&&&&=*#-$^^&&&&&&&&&&&&&&&&&&&&&&&&&&&&&&&&&&&&&&&&:|/c-+&&&&&&&&&&&&&&",
"&&&&&&&&&&&&&&&&&&&&&&&&&&&&&&&&*!*#-$^^&&&&&&&&&&&&&&&&&&&&&&&&&&&&&&&&&&&&&&&&}gA8-+&&&&&&&&&&&&&&",
"&&&&&&&&&&&&&&&&&&&&&&&&&&&&&&&&*==#-$^^&&&&&&&&&&&&&&&&&&&&&&&&&&&&&&&&&&&&&&&:26B'-+&&&&&&&&&&&&&&",
"&&&&&&&&&&&&&&&&&&&&&&&&&&&&****!uC1--++&&&&&&&&&&&&&&&&&&&&&&&&&&&&&&&&&&&&&&::D_B''f&&&&&&&&******",
"***********************&***=*=**uu!1--f*************************************==kEFkG''***************"};
