/* XPM */
static char *_10bc42716634b3effba4f1251bc88e8fcCXiXcHkIMtKzXk[] = {
/* columns rows colors chars-per-pixel */
"64 64 51 1 ",
"  c black",
". c #0B0F0A",
"X c #0D130B",
"o c #161F0D",
"O c #181617",
"+ c #131B12",
"@ c #2C1D19",
"# c #152313",
"$ c #1D2613",
"% c #222D18",
"& c #273717",
"* c #262224",
"= c #2A2024",
"- c #2A2729",
"; c #2B2829",
": c #2D2B2B",
"> c #2C2B2D",
", c #342522",
"< c #342C28",
"1 c #253F22",
"2 c #32302A",
"3 c #2A2E31",
"4 c #383733",
"5 c #4A362E",
"6 c #49383D",
"7 c #334422",
"8 c #3D502B",
"9 c #41413C",
"0 c #624B3B",
"q c #3F3D40",
"w c #433D40",
"e c #3B454A",
"r c #4A4447",
"t c #4D474A",
"y c #504C4D",
"u c #5A564B",
"i c #4F4D50",
"p c #495254",
"a c #595257",
"s c #5F5C5E",
"d c #5A6C54",
"f c #686A46",
"g c #65625C",
"h c #62665F",
"j c #495960",
"k c #777766",
"l c #75746C",
"z c #7E7C6B",
"x c #7F797F",
"c c #868854",
"v c #96987D",
/* pixels */
"&&&&&&77887787877777&7788787777&&&&7&7788888787&&&&&7&7888787777",
"uuuuutwtissssiiiwllutw1&8zvkxxuuuuuuutwwwwtggxxgxggutw178zvkxxuu",
"ytttyytwuullluullyttwtw+7vyttttuuuytttt1ttyttttugtttwtw+7vytttuy",
"tttyytttttytttuyyttttwt-7gttttyyyytttttttytttyuttttttwt-&gtttuyt",
"wtwttttttttttwtwttttttt+71wttta11wtttttttttttwtwttttttt+71wttta1",
"tttttttwtwttttttttttttw+7wtttt1111wttttttwttttttttttttw+7wtta111",
"tt11wtt1tw111ttttt11tt1+7w11tw----11ttw1tw111ttttt11tt1 7w11111w",
"----+-+  ++++-+------++78&+++++-+----+++  +++-+------+ 78 +++-+-",
"87&&&&7&7&&&&77&77&&7&7888&7&&7&77&7&&&&&&7&77&7&&&&78888&7&7&78",
"uutw1887lyuuyyy1-qiqggygyzzgzgggr111ww788zgggg1-11www111tttyuuuu",
"ytytw+8zyttgytyty-qgyyttttyttttugt1wwt+7lyttttt1-wttttw1ttttttuy",
"ttttt-&gttgytytyy-11gttttttttyuttttwtw+8gttutttw1ttttwtwtttttuyt",
"11wtw+&1twtttttttttawtttttytyttwtt1wtw-7gyttttttttttwtwtttwwtwt1",
"1ttww+71wtwtwtttttawtwwttwtttt1ttw1twt+7wtttttttttttttwtttwtwtww",
"t1wt1+&11wtwtwttta11ww-tt1wt11tttw1ww1+71wt111ttttttwttttwtwww11",
"---++&7&+++---+-----+-++ ++-+OOOOOO++ &87+-+-------++ +  ++++-+-",
"&&&&&&77&&77&7&7&77777&7&&oo$6hhhh6$o$&88888787&&&&7&7&&87877777",
"lluyttutuuusssisiiwllutw#o6hhpppppphh6*;gggyuuuuuuutw1&87ivvgggg",
"uuytttt1ttylluullllyttw;6hpppdccccdppph6;tttttaytttytw+7szytttuu",
"yytttttttyytttuyyyyttt;hpppdc< == <cdppph;tttaytttyttt-8iltttyyy",
"1wtttttttttttwwtwtwtt;hppd6=   3=   =6dpph*wtwta111wtw+&twttta11",
"11wttttttwtttttwtttt;hpp6 ==   e=   ,= 6pph;wtw1w1ttww+&wtwtt111",
"--11ttw1tw111tttttt;hpp6  =3   e=   0@  6pph*w1t1t1wt1+&1wttw---",
"+----+++   +++ ++- hpp6   e,   e=   5@   6pphO+-----++&&++-+++--",
"7&&&&&7&77&&7&777$6pp6=   j=   j3   0,   =6pp6$77&&&&7&7&8888878",
"uuuuuutw177qvvvlg4hpp==   j@   e3   0,   3=pph>iiiiqilggw1+zxyuu",
"uyytttytw+&zuuut;6pp6=3   e=   j3   0,   e=6pp69gllgltyytwttyttt",
"yttttyttt-7ututy2hpp 3,   j,   j=   5@   j, pph:tyyttttttttttttu",
"taa111wtw+7uyyty;ppp 53   e=   j3   0,   e@ ppp;tttttawtttt1wwtw",
"w11w1ttww+8tyty;6pp< 5,   j3   j=   5@   0, <pp6;tttawtwtttwwtwt",
"11t1t1wt1+7wttt;ppp  e3   j3   j=   5,   5@  ppp;tta11wwtttwtwww",
"+------++787+-+Oppp  e,   j3   e=   53   0,  ppp.-----+-++ ++++-",
"&&&7&7788888787oppp  e3   e=   j3   5,   0,  ppp$777&7788787777&",
"uuuuutwwwwtggxx4dpp  e3   j3   e=   e3   0,  ppd*llutw1&8zvkxxuu",
"uuytttt1ttytttt26pp< j3   e@   j,   e,   5, <pp69yttwtw+7vyttttu",
"yytttttttytttyu;;pph e3   53   j,   e3   5@ hpp::ttttwt-7gttttyy",
"1wtttttttttttwt*;dpp 3,   5,   j,   e3   5@ ppd*;tttttt+71wttta1",
"11wttttttwtttttt;6pp633   5,   e@   j3   5@6pp6;;tttttw+7wtttt11",
"--11ttw1tw111ttt;;dph=@   5@   0,   e3   0@hpd;;tt11tt1+7w11tw--",
"+----+++  +++-+--O6pp6=   e@   5@   j,   @6pp6.O-----++78&+++++-",
"77&7&&&&&&7&77&7&oodph6   e,   0,   03   6hpd$$o77&&7&7888&7&&7&",
"r111ww788zgggg1-11**dph6  33   0,   5@  6hpd:::1-qiqggygyzzgzggg",
"gt1wwt+7lyttttt1-w;;;dph6 =3   0,   0, 6hpd4:;:ty-qgyyttttyttttu",
"tttwtw+8gttutttw1tt;;*dpph6=   5@   ,6hppd4:;:tyy-11gttttttttyut",
"tt1wtw-7gytttttttttt*;*cdpphh< @@ <hhppdc*;;;ttttttawtttttytyttw",
"tw1twt+7wtttttttttttt;*;6cdppphhhhpppdc6*;*;wtttttawtwwttwtttt1t",
"tw1ww1+71wt111ttttttwt;;;*6cddppppddc6o##*;wtwttta11ww-tt1wt11tt",
"---++ &87+-+-------++ +  ....6cccc6..o$o..+---+-----+-++ ++-+---",
"7&&7&7&88888787&&&&7&7&&%$%$$$$$oooooo$$o&77&7&7&77777&7&&&&7777",
"uuuuutwtgggyuuuuuuutw1&87iff4444992:;;2tuuusssisiiwllutw1&7&vkzz",
"uyttyytwttttttaytttytw+7szytt;2222:;ttt1ttylluullllyttwtw+&vyttt",
"yttyyttttttttaytttyttt-8iltttyyyyytttttttyytttuyyyyttttwt-7gtttu",
"1twtttttt1wwtwta111wtw+&twttta111wtttttttttttwwtwtwtttttt+&1wttt",
"1ttttttttwwtwtw1w1ttww+&wtwtt11111wttttttwtttttwttttttttw+7wtta1",
"wt11wtt1twtwww1t1t1wt1+&1wttw-----11ttw1tw111ttttttt11tt1+7w1111",
"----+-++ ++++-+-----++&&++-+++--+----+++   +++ ++-  +--++&87+++-",
"877777&7777777777&&&&7&7&88888787&&&&&7&77&&7&7777&7&&7&77887787",
"wqrr111ww888iiiiiiiqilggw1+zxyuuuuuuuutw177qvvvlggrr1qqqzlllgggg",
"-ugtt1wt1+8ivzllgllgltyytwttytttuyytttytw+&zuuuttugtt1gzrrrtyttw",
"uttttttt1+7zttgytyyttttttttttttuyttttyttt-7ututyuttttrrwtwttttt-",
"tttttwttw+&1twtttttttawtttt1wwtwtaa111wtw+7uyytytttttw1t1ttt1y1t",
"ttttwtttt-&1wtwtttttawtwtttwwtwtw11w1ttww+8tytyttwttt1twttttt1t1",
"1tttttttt+&11wtwttta11wwtttwtwww11t1t1wt1+7wtttt1tttw1w-+11w1t11",
"---X--++ &&&+++-+-----+-++ ++++-+------++787+-+--+-+++ +++ ++-+-"
};
