/* XPM */
static char * monster_xpm[] = {
"64 64 379 2",
"  	c None",
". 	c #77A058",
"+ 	c #76A058",
"@ 	c #7BA359",
"# 	c #8DB05D",
"$ 	c #94B55F",
"% 	c #93B55E",
"& 	c #8AAE5C",
"* 	c #79A258",
"= 	c #93B55F",
"- 	c #92B45E",
"; 	c #83A95B",
"> 	c #84AA5B",
", 	c #86AB5B",
"' 	c #9DBD61",
") 	c #A5C363",
"! 	c #A4C263",
"~ 	c #A5C263",
"{ 	c #9BBB60",
"] 	c #89AD5C",
"^ 	c #85AB5B",
"/ 	c #8BAE5C",
"( 	c #9EBD61",
"_ 	c #A3C163",
": 	c #81A75A",
"< 	c #78A158",
"[ 	c #9CBC61",
"} 	c #A1BF62",
"| 	c #A0BF62",
"1 	c #A5C364",
"2 	c #A6C364",
"3 	c #A2C062",
"4 	c #7EA559",
"5 	c #9ABA60",
"6 	c #A3C263",
"7 	c #AFC968",
"8 	c #B2CB69",
"9 	c #A8C465",
"0 	c #B3CB6A",
"a 	c #ADC867",
"b 	c #ABC666",
"c 	c #B6CD6B",
"d 	c #B7CE6C",
"e 	c #AEC868",
"f 	c #9FBE62",
"g 	c #97B860",
"h 	c #96B75F",
"i 	c #88AC5C",
"j 	c #ACC767",
"k 	c #A6C464",
"l 	c #A8C565",
"m 	c #AEC968",
"n 	c #B9D06D",
"o 	c #BCD16E",
"p 	c #B0CA69",
"q 	c #A7C464",
"r 	c #AEC867",
"s 	c #A9C565",
"t 	c #AAC566",
"u 	c #BBD16E",
"v 	c #B8CF6C",
"w 	c #AAC666",
"x 	c #B5CD6B",
"y 	c #BFD470",
"z 	c #C1D470",
"A 	c #C0D470",
"B 	c #7AA258",
"C 	c #98B960",
"D 	c #B1CA69",
"E 	c #BAD06D",
"F 	c #BDD26F",
"G 	c #BCD26E",
"H 	c #BED36F",
"I 	c #BDD26E",
"J 	c #B3CC6A",
"K 	c #B9CF6D",
"L 	c #ABC766",
"M 	c #B4CC6A",
"N 	c #ADC767",
"O 	c #B2CB6A",
"P 	c #93B45E",
"Q 	c #BFD370",
"R 	c #BBD06D",
"S 	c #B9CC6D",
"T 	c #91665D",
"U 	c #B2B96A",
"V 	c #BFD36F",
"W 	c #B9CF6C",
"X 	c #ACC766",
"Y 	c #BDCF6F",
"Z 	c #90625D",
"` 	c #B2B86A",
" .	c #B6CE6B",
"..	c #7FA65A",
"+.	c #95B65F",
"@.	c #B0C968",
"#.	c #82A85A",
"$.	c #80A75A",
"%.	c #83A95A",
"&.	c #B5BE6B",
"*.	c #AAA867",
"=.	c #ABA568",
"-.	c #AD7274",
";.	c #AB996B",
">.	c #B0B569",
",.	c #7CA459",
"'.	c #B2CA69",
").	c #A8A366",
"!.	c #946460",
"~.	c #C58086",
"{.	c #A46D6C",
"].	c #9E8C62",
"^.	c #8FB25D",
"/.	c #8BAF5C",
"(.	c #BED26F",
"_.	c #C1D570",
":.	c #8FB15D",
"<.	c #90B25E",
"[.	c #C1D571",
"}.	c #B4CC6B",
"|.	c #A1C062",
"1.	c #C0D370",
"2.	c #A9A367",
"3.	c #92655F",
"4.	c #966862",
"5.	c #C68287",
"6.	c #A5706E",
"7.	c #9F8D64",
"8.	c #9EBD62",
"9.	c #CEC29D",
"0.	c #F3F2C0",
"a.	c #DFD8AD",
"b.	c #B7C26C",
"c.	c #84A95B",
"d.	c #A2C063",
"e.	c #B5CC6B",
"f.	c #8FB25E",
"g.	c #A69E65",
"h.	c #D2C8A1",
"i.	c #E5E0B3",
"j.	c #F0EEBD",
"k.	c #B6AA91",
"l.	c #E0DCB1",
"m.	c #CDC5A2",
"n.	c #BEB396",
"o.	c #B1A876",
"p.	c #AFB269",
"q.	c #ACAD68",
"r.	c #EDECBC",
"s.	c #754C60",
"t.	c #D2CBA6",
"u.	c #AC9D89",
"v.	c #A29182",
"w.	c #AD947D",
"x.	c #A29564",
"y.	c #A8AA66",
"z.	c #EEECBC",
"A.	c #8A7070",
"B.	c #D6D0A9",
"C.	c #F3F1BF",
"D.	c #F0EDB9",
"E.	c #B1A186",
"F.	c #846261",
"G.	c #AA9982",
"H.	c #A5A764",
"I.	c #EEEBB5",
"J.	c #D4C169",
"K.	c #DDCF87",
"L.	c #ABAB67",
"M.	c #8CAF5D",
"N.	c #A19763",
"O.	c #BEB387",
"P.	c #D9D0A7",
"Q.	c #F1F0BD",
"R.	c #E9E3A9",
"S.	c #ECE7B0",
"T.	c #936E5E",
"U.	c #C5B694",
"V.	c #946E5E",
"W.	c #A09363",
"X.	c #9A8F60",
"Y.	c #B2C769",
"Z.	c #B6C36C",
"`.	c #B8C46C",
" +	c #AB947A",
".+	c #AB907A",
"++	c #CFC49F",
"@+	c #9E9262",
"#+	c #A2AC63",
"$+	c #A3AC64",
"%+	c #81A85A",
"&+	c #A1AA62",
"*+	c #98B860",
"=+	c #87AB5B",
"-+	c #8EB15D",
";+	c #9EA961",
">+	c #E7D4AA",
",+	c #EBD9AE",
"'+	c #EFE5B6",
")+	c #F1EFBD",
"!+	c #D2B88A",
"~+	c #E8E0AF",
"{+	c #F1ECBC",
"]+	c #AA8976",
"^+	c #A19463",
"/+	c #A1AB63",
"(+	c #E4CAA3",
"_+	c #E8CFA6",
":+	c #EDE0B2",
"<+	c #F0EEBC",
"[+	c #C49A6C",
"}+	c #E4D8A8",
"|+	c #F0EABA",
"1+	c #A98573",
"2+	c #9B8F61",
"3+	c #AAB166",
"4+	c #9D9162",
"5+	c #83A85A",
"6+	c #AEB468",
"7+	c #A9B766",
"8+	c #A09063",
"9+	c #A09163",
"0+	c #D0B592",
"a+	c #D2B795",
"b+	c #DCC9A0",
"c+	c #E6DCAC",
"d+	c #E5D9AA",
"e+	c #D0AC81",
"f+	c #E5D5A8",
"g+	c #F0E8B9",
"h+	c #E9DDB0",
"i+	c #AD9B71",
"j+	c #ACAB68",
"k+	c #AA7F64",
"l+	c #C79E71",
"m+	c #D6BB97",
"n+	c #A2C163",
"o+	c #91B35E",
"p+	c #B3BF6A",
"q+	c #97B85F",
"r+	c #B2BE6F",
"s+	c #AEBA6E",
"t+	c #ACB96D",
"u+	c #AFBB6E",
"v+	c #A89F69",
"w+	c #9B6F60",
"x+	c #D1BB6A",
"y+	c #CFB86A",
"z+	c #A57F6F",
"A+	c #C8AF74",
"B+	c #D8C477",
"C+	c #B79A72",
"D+	c #A8926F",
"E+	c #B1BC6F",
"F+	c #B8CC6E",
"G+	c #79A158",
"H+	c #85AA5B",
"I+	c #B8CA73",
"J+	c #AFC46F",
"K+	c #A5BE6B",
"L+	c #B2C670",
"M+	c #A7A56A",
"N+	c #D0BD68",
"O+	c #BFA765",
"P+	c #AA8A61",
"Q+	c #9B8763",
"R+	c #B7C973",
"S+	c #BDD271",
"T+	c #87AC5B",
"U+	c #99B960",
"V+	c #B3C771",
"W+	c #B0C56F",
"X+	c #B4C872",
"Y+	c #BED271",
"Z+	c #AAC567",
"`+	c #B8CE6F",
" @	c #BDD171",
".@	c #B7CA73",
"+@	c #ACB26D",
"@@	c #9D8E64",
"#@	c #988A62",
"$@	c #9A8C63",
"%@	c #9E8F65",
"&@	c #C1A965",
"*@	c #B5A165",
"=@	c #AB9965",
"-@	c #A5A169",
";@	c #BCCF71",
">@	c #7FA659",
",@	c #A9C369",
"'@	c #B8C973",
")@	c #B6C872",
"!@	c #936D5E",
"~@	c #9F9265",
"{@	c #ACB06C",
"]@	c #BACD72",
"^@	c #A6C267",
"/@	c #ABC26E",
"(@	c #ADC36F",
"_@	c #B6C873",
":@	c #B5C872",
"<@	c #B2C771",
"[@	c #B6C973",
"}@	c #B1C570",
"|@	c #B9CC72",
"1@	c #A1BF65",
"2@	c #9EB969",
"3@	c #A1BA6A",
"4@	c #A9C06D",
"5@	c #A6BE6C",
"6@	c #AEC36F",
"7@	c #AAC16D",
"8@	c #B8CC71",
"9@	c #99BA60",
"0@	c #9EB968",
"a@	c #ACC26F",
"b@	c #B9CD72",
"c@	c #A4C264",
"d@	c #ADC768",
"e@	c #B9CB73",
"f@	c #ACC26E",
"g@	c #AAC16E",
"h@	c #B1C56F",
"i@	c #B4C371",
"j@	c #B5C371",
"k@	c #B1C170",
"l@	c #ACBD6D",
"m@	c #B2C270",
"n@	c #B5C571",
"o@	c #B5C672",
"p@	c #B0C170",
"q@	c #B5C471",
"r@	c #ADBF6E",
"s@	c #C0D471",
"t@	c #7AA359",
"u@	c #B4C771",
"v@	c #ABC16E",
"w@	c #A2BB6A",
"x@	c #B3C871",
"y@	c #A4BD6B",
"z@	c #A5BD6B",
"A@	c #BDD170",
"B@	c #A3BC6A",
"C@	c #A0BA69",
"D@	c #A1BB6A",
"E@	c #ADC26F",
"F@	c #A7BF6C",
"G@	c #A3BB6A",
"H@	c #9FB969",
"I@	c #A4BD6A",
"J@	c #B8CE6E",
"K@	c #9DB968",
"L@	c #9DB868",
"M@	c #9EB868",
"N@	c #9CB868",
"O@	c #A4BC6A",
"P@	c #A8BF6C",
"Q@	c #A6BF6C",
"R@	c #AAC06D",
"S@	c #A8C06C",
"T@	c #ACC669",
"U@	c #9BBB61",
"V@	c #99B961",
"W@	c #99B862",
"X@	c #9AB963",
"Y@	c #A0BD64",
"Z@	c #9EBC64",
"`@	c #99B863",
" #	c #A2BF64",
".#	c #A3BF64",
"+#	c #9CBB63",
"@#	c #9DBB64",
"##	c #A0BE64",
"$#	c #9AB863",
"%#	c #9FBD64",
"&#	c #A5C163",
"*#	c #9FBE61",
"=#	c #8BAF5D",
"-#	c #80A65A",
"                                                                                                                                ",
"                    . + @ # $ % % % % % % % % $ & * . + @ # $ % % % = - ; + * & $ % % % % % % % % $ # @ + .                     ",
"          @ > , , , , , & ' ) ! ! ! ! ! ! ! ! ~ { ] , ^ / ( ) ! ! ! ! _ % ^ ] { ! ! ! ! ! ! ! ! ! ) ' & , , , , : < .           ",
"          , [ } | | | | } _ ! ! ! ! ! ! 1 1 ! ! _ | | | } _ ! ! 2 ) ! ! 3 | | _ ~ 2 2 2 2 2 ) ! ! ! _ } | | | | $ 4 @           ",
"        ] 5 _ ) ~ ~ ~ ! ! ! ! ! ! ! 6 ! 7 8 2 6 ! ! ! ! ! ! 6 9 0 a ! ! ! ! ! ! b c d d d d e ! ! ! ! ~ ~ ~ ~ ) f g h &         ",
"      i 5 ! ! ! ! ! ! 9 j k l e 7 m e 7 n o p e 7 a q 9 r e s t u v j 1 w e e e x y z A A A 0 2 j s ! ! ! ! ! ! ! ! ! % B       ",
"      C 3 ! ! ! ! ! 2 D E r D F G F H H y A H I I o e p F H J j o A K L x H H G F A A A A A M N E O q q ) ) k ) ! ! ! P B       ",
"      , C ! ! ! ! 2 8 o Q R o F D d A A A A Q M M H u S T T T T T T T T T T T T T U A A A A o E V o W d X b x b ! ! ! - *       ",
"      < - ! ! 6 q p o z A A z F J v A A A A Q x x V z Y Z Z Z Z Z Z Z Z Z Z Z Z Z ` A A A A A A A A z A  .x H c b ! ! 5 &       ",
"    * ..+.! ! 2 @.F A A A A A A Q y A A A A A y y A A Y Z Z Z Z Z Z Z Z Z Z Z Z Z U A A A A A A A A A A y y A y d s ) ! [ #.    ",
"  . $.h } ! 1 8 o A A A A A A A A A A A A A A A A A A Y Z Z Z Z Z Z Z Z Z Z Z Z Z U A A A A A A A A A A A A A A H v w ! ( %..   ",
"  + #.( ) ! ! a v Q A A A A A A A A A A A A A &.*.*.*.=.-.-.-.-.-.-.-.-.-.-.-.-.-.;.*.*.*.>.E c H A A A A A A A z F j ! } % %.  ",
"  ,.] f ! 1 s w '.H A A A A A A A A A A A A A ).Z Z Z !.~.~.~.~.~.~.~.~.~.~.~.~.~.{.Z Z Z ].x 7 I A A A A H o H z F X 6 ! _ ^.  ",
"  /.( _ ! w K o I A A A A A A A A A A A A A A ).Z Z Z !.~.~.~.~.~.~.~.~.~.~.~.~.~.{.Z Z Z ].(.G Q A A A A K e K _.F j ! ! _ :.  ",
"  <.! ! 6 j F [.z A A A A A A (.}.W A A A A A ).Z Z Z !.~.~.~.~.~.~.~.~.~.~.~.~.~.{.Z Z Z ].A A A A A A A o x o A V d a |.P %.  ",
"  ^.6 ! 6 X I G o y A A A A A I p c A 1.1.1.1.2.3.3.3.4.5.5.5.5.5.5.5.5.5.5.5.5.5.6.3.3.3.7.1.1.1.1.A A A A A A A Q u D 8.#..   ",
"  ^.6 ! ! a o 0 D H A A A A A y F H A Z Z Z Z 9.0.0.0.0.0.0.0.0.0.0.0.0.0.0.0.0.0.0.0.0.0.a.Z Z Z Z b.A A A A A A F @.q ( c.<   ",
"  ^._ ~ r v H n v Q A A A A A A A A A Z Z Z Z 9.0.0.0.0.0.0.0.0.0.0.0.0.0.0.0.0.0.0.0.0.0.a.Z Z Z Z b.A A A A A A V v r d.g ,   ",
"  ^._ ) e.A A A A A A A A A A A A A A Z Z Z Z 9.0.0.0.0.0.0.0.0.0.0.0.0.0.0.0.0.0.0.0.0.0.a.Z Z Z Z b.A A A A A A A A }.) 6 f.  ",
"  ^._ ) 0 V A A A A A A A A A A A A A Z Z Z Z 9.0.0.0.0.0.0.0.0.0.0.0.0.0.0.0.0.0.0.0.0.0.a.Z Z Z Z b.A A A A A A A A M ) _ ^.  ",
"  ^._ ! s 0 H A A A A A A A &.g.g.g.g.h.h.h.h.i.0.0.0.j.k.k.k.k.l.0.0.0.0.0.0.0.0.m.k.k.k.n.h.h.h.h.o.g.g.g.p.A A A A M ) _ ^.  ",
"  ^._ ! s J F E K Q A A A A q.Z Z Z Z 0.0.0.0.0.0.0.0.r.s.s.s.s.t.0.0.0.0.0.0.0.0.u.s.s.s.v.0.0.0.0.w.Z Z Z x.A A A A e.) _ ^.  ",
"  ^._ ) J Q V 8 D H A A A A q.Z Z Z Z 0.0.0.0.0.0.0.0.r.s.s.s.s.t.0.0.0.0.0.0.0.0.u.s.s.s.v.0.0.0.0.w.Z Z Z x.A A A H O ) _ ^.  ",
"  ^._ ) }.A A u u y A A A A q.Z Z Z Z 0.0.0.0.0.0.0.0.r.s.s.s.s.t.0.0.0.0.0.0.0.0.u.s.s.s.v.0.0.0.0.w.Z Z Z x.A A H 8 l ! 6 ^.  ",
"  , h d.r v Q z A A A A V d y.Z Z Z Z 0.0.0.0.0.0.0.0.z.A.A.A.A.B.0.0.0.C.D.D.D.D.E.F.F.F.G.0.0.0.0.w.Z Z Z x.A o 0 9 ! |.h ,   ",
"  < c.( ) L E V A A A A F @.H.Z Z Z Z 0.0.0.0.0.0.0.0.0.0.0.0.0.0.0.0.0.I.J.J.J.J.J.J.J.J.K.0.0.0.0.w.Z Z Z x.A v w 1 ~ ( c.<   ",
"  . #.( ! 1 L v A A A A y o L.Z Z Z Z 0.0.0.0.0.0.0.0.0.0.0.0.0.0.0.0.0.I.J.J.J.J.J.J.J.J.K.0.0.0.0.w.Z Z Z x.A H v w ! ( #..   ",
"  + #.( ! 9 D u A A A A A A q.Z Z Z Z 0.0.0.0.0.0.0.0.0.0.0.0.0.0.0.0.0.I.J.J.J.J.J.J.J.J.K.0.0.0.0.w.Z Z Z x.A o O 9 ! ( #.+   ",
"  ,.& f ! L I A H u H A A A q.Z Z Z Z 0.0.0.0.0.0.0.0.0.0.0.0.0.0.0.0.0.I.J.J.J.J.J.J.J.J.K.0.0.0.0.w.Z Z Z x.A c 2 ! ~ f & ,.  ",
"  M.f _ ! j F _.K r N.x.x.x.O.P.P.P.P.0.0.0.0.0.0.0.0.0.0.0.0.0.0.0.0.0.Q.R.R.R.R.R.R.R.R.S.0.0.0.0.w.Z Z Z x.A  .2 ! ! _ f M.  ",
"  <.! ) a d V A o c T.Z Z Z U.0.0.0.0.0.0.0.0.0.0.0.0.0.0.0.0.0.0.0.0.0.0.0.0.0.0.0.0.0.0.0.0.0.0.0.w.Z Z Z x.A o J l ! ! ! <.  ",
"  ^._ ) }.A A A A A V.Z Z Z U.0.0.0.0.0.0.0.0.0.0.0.0.0.0.0.0.0.0.0.0.0.0.0.0.0.0.0.0.0.0.0.0.0.0.0.w.Z Z Z W.(.z F j 6 ! 6 ^.  ",
"  ^._ ) J Q A A A A V.Z Z Z U.0.0.0.0.0.0.0.0.0.0.0.0.0.0.0.0.0.0.0.0.0.0.0.0.0.0.0.0.0.0.0.0.0.0.0.w.Z Z Z X.K _.F j 6 ! 6 ^.  ",
"  <.! ~ w Y.Z.`.`.`. +.+.+.+++0.0.0.0.0.0.0.0.0.0.0.0.0.0.0.0.0.0.0.0.0.0.0.0.0.0.0.0.0.0.0.0.0.0.0.w.Z Z Z @+I z F j 6 ! 6 ^.  ",
"  i 5 3 6 #+Z Z Z Z z.0.0.0.0.0.0.0.0.0.0.0.0.0.0.0.0.0.0.0.0.0.0.0.0.0.0.0.0.0.0.0.0.0.0.0.0.0.0.0.w.Z Z Z x.A z F j 6 ! 6 ^.  ",
"  * ^ ( ! $+Z Z Z Z z.0.0.0.0.0.0.0.0.0.0.0.0.0.0.0.0.0.0.0.0.0.0.0.0.0.0.0.0.0.0.0.0.0.0.0.0.0.0.0.w.Z Z Z x.A A u b 6 ! 6 ^.  ",
"  + %+( ! $+Z Z Z Z z.0.0.0.0.0.0.0.0.0.0.0.0.0.0.0.0.0.0.0.0.0.0.0.0.0.0.0.0.0.0.0.0.0.0.0.0.0.0.0.w.Z Z Z x.A n a 2 ! ! ! f.  ",
"  : <.| ! &+Z Z Z Z z.0.0.0.0.0.0.0.0.0.0.0.0.0.0.0.0.0.0.0.0.0.0.0.0.0.0.0.0.0.0.0.0.0.0.0.0.0.0.0.w.Z Z Z x.A E 7 2 ! 3 *+=+  ",
"  -+3 ! ! ;+Z Z Z Z >+,+,+,+'+0.0.0.0.0.0.0.0.0.0.0.0.)+!+!+!+!+~+0.0.0.0.0.0.0.0.0.0.0.0.{+,+,+,+,+]+Z Z Z ^+Q A o e k ( > <   ",
"  f.! ! ! /+Z Z Z Z (+_+_+_+:+0.0.0.0.0.0.0.0.0.0.0.0.<+[+[+[+[+}+0.0.0.0.0.0.0.0.0.0.0.0.|+_+_+_+_+1+Z Z Z 2+E z y u D 8.#..   ",
"  ^._ ~ X 3+Z Z Z Z (+_+_+_+:+0.0.0.0.0.0.0.0.0.0.0.0.<+[+[+[+[+}+0.0.0.0.0.0.0.0.0.0.0.0.|+_+_+_+_+1+Z Z Z 4+u A A A x 3 - 5+  ",
"  ^._ ) D 6+Z Z Z Z (+_+_+_+:+0.0.0.0.0.0.0.0.0.0.0.0.<+[+[+[+[+}+0.0.0.0.0.0.0.0.0.0.0.0.|+_+_+_+_+1+Z Z Z x.A A A A M ) _ :.  ",
"  ^._ ! q 7+8+9+9+9+0+a+a+a+b+c+c+c+c+c+c+c+c+c+c+c+c+d+e+e+e+e+f+g+g+g+g+g+g+g+g+g+g+g+g+h+a+a+a+a+i+9+9+9+j+A A A A M ) _ ^.  ",
"  ^._ ~ j d V A A A V.Z Z Z k+[+[+[+[+[+[+[+[+[+[+[+[+l+_+_+_+_+_+_+_+_+_+_+_+_+_+_+_+_+_+m+Z Z Z Z b.A A A A A A H c j |.= ;   ",
"  f.6 ) D o y A A A V.Z Z Z k+[+[+[+[+[+[+[+[+[+[+[+[+l+_+_+_+_+_+_+_+_+_+_+_+_+_+_+_+_+_+m+Z Z Z Z b.A A A A A z F j ! ( #..   ",
"  -+n+! 2 7 I A A A V.Z Z Z k+[+[+[+[+[+[+[+[+[+[+[+[+l+_+_+_+_+_+_+_+_+_+_+_+_+_+_+_+_+_+m+Z Z Z Z b.Q A A A A A o L ! ( c.<   ",
"  #.o+| ! q 7 E A A V.Z Z Z k+[+[+[+[+[+[+[+[+[+[+[+[+l+_+_+_+_+_+_+_+_+_+_+_+_+_+_+_+_+_+m+Z Z Z Z p+0 E A A A E 7 q ! 3 q+,   ",
"  + #.( ~ 2 N K A A r+s+t+u+v+w+w+w+w+x+x+x+x+x+x+x+x+y+z+z+z+z+A+B+B+B+B+B+B+B+B+C+z+z+z+D+E+E+E+E+F+@.W A A A K N 2 ! ! ! ^.  ",
"  G+H+( ! w K V A A I+J+K+L+M+Z Z Z Z J.J.J.J.J.J.J.J.N+Z Z Z Z O+J.J.J.J.J.J.J.J.P+Z Z Z Q+R+R+R+R+S+H V A A A V K w 6 ! 6 ^.  ",
"  T+U+3 ! q e E A A I+V+W+X+M+Z Z Z Z J.J.J.J.J.J.J.J.N+Z Z Z Z O+J.J.J.J.J.J.J.J.P+Z Z Z Q+R+R+R+R+Y+A A A A A E e q ! ! ! <.  ",
"  <.! ! ! 2 r E A A I+R+R+R+M+Z Z Z Z J.J.J.J.J.J.J.J.N+Z Z Z Z O+J.J.J.J.J.J.J.J.P+Z Z Z Q+R+R+R+R+Y+A A A A A E r 2 ! 3 U+i   ",
"  # } ! 6 Z+`+ @ @ @.@R+R+R++@@@#@$@%@&@&@&@&@&@&@&@&@O+%@%@%@%@*@&@&@&@&@&@&@&@&@=@%@%@%@-@R+R+R+R+;@ @ @ @Y+A A u b ! ( H+*   ",
"  >@# | ! ,@X+'@R+R+R+R+R+R+R+)@L+V+R+Z Z Z Z Z Z Z Z !@R+R+R+R+~@Z Z Z Z Z Z Z Z {@R+R+R+R+R+R+R+R+R+R+R+R+]@A z F j ! ( #..   ",
"  + #.( ! ^@/@(@W+_@R+R+R+R+R+R+R+R+R+Z Z Z Z Z Z Z Z !@R+R+R+R+~@Z Z Z Z Z Z Z Z {@R+R+R+R+R+:@J+<@R+[@}@W+|@A G M s ) ( 5+.   ",
"      ( ) 1@2@3@4@:@R+R+R+X+:@R+R+R+R+Z Z Z Z Z Z Z Z !@R+X+:@R+~@Z Z Z Z Z Z Z Z {@R+R+R+R+R+V+5@6@R+)@7@4@8@z d q ! n+9@      ",
"      ' ) 1@0@7@V+[@R+R+X+4@a@[@R+R+R+Z Z Z Z Z Z Z Z !@X+4@(@R+~@Z Z Z Z Z Z Z Z {@R+R+R+R+R+)@<@X+R+R+V+V+b@A c 1 ! q+;       ",
"      -+[ ! c@d@d Q e@V+f@g@h@R+R+R+R+i@i@i@i@j@k@l@m@n@)@(@W+R+o@j@m@l@p@q@i@r@r@)@R+R+R+R+R+'@'@R+ @Q A s@Q v r ) ! - G+      ",
"      t@% ! ! ! j n u@v@w@(@<@V+_@:@x@[@R+R+R+X+f@w@(@<@V+)@R+R+R+:@6@w@g@V+L+y@z@L+_@R+R+R+:@x@[@R+A@o u u n j ! ! ! P B       ",
"      * - _ ! ! 2 s B@C@0@D@w@K+<@E@F@x@R+R+:@7@C@0@3@w@z@L+R+[@)@f@D@0@C@G@w@H@2@I@L+R+[@_@(@F@V+R+J@j s t s 2 ! ! _ - B       ",
"        > +.n+) ~ ! K@L@M@L@N@C@F@O@C@P@7@7@4@w@L@0@L@L@2@Q@7@7@4@B@L@M@L@L@L@L@L@0@5@7@7@R@O@C@S@v@T@1 ! ! ! ~ ) n++.>         ",
"          #.q+U@{ { V@W@X@Y@Z@`@`@Z@ # # #.# #+#W@W@W@@# #.# # # #.###X@W@W@$#%# # # # # # #Z@`@`@Z@&#! *#{ { { U@q+#.          ",
"                    ..4 c.5 +.$...- 3 n+n+_ | # 4 ..>@-+|._ n+n+n+_ { > 4 4 #.*+_ n+n+n+n+3 - ..$.$ _ } -+>@                    ",
"                    . . B , ; < . #./././.=#& >@. . . -#& =#/././.M.T+B . . G+H+M./././././.#.. < %.=#& ...                     ",
"                                                                                                                                "};
