/* XPM */
static char *_64f0022a653487a95fa46489e3ddc8c3oL4Kb3Su84LFTZP[] = {
/* columns rows colors chars-per-pixel */
"64 64 10 1 ",
"  c #000001",
". c #383878",
"X c #C03838",
"o c #F86848",
"O c #B89838",
"+ c #D89070",
"@ c #70A0C0",
"# c #F8C090",
"$ c gray91",
"% c white",
/* pixels */
"%%%%%%%%%%%%%%%%%%                           %%%%%%%%%%%%%%%%%%%",
"%%%%%%%%%%%%%%%%%%                           %%%%%%%%%%%%%%%%%%%",
"%%%%%%%%%%%%%%%%%%                           %%%%%%%%%%%%%%%%%%%",
"%%%%%%%%%%%%%%%%%%                           %%%%%%%%%%%%%%%%%%%",
"%%%%%%%%%%%%%%    ooooooooooooooooooooooooooo     %%%%%%%%%%%%%%",
"%%%%%%%%%%%%%%    ooooooooooooooooooooooooooo     %%%%%%%%%%%%%%",
"%%%%%%%%%%%%%%    ooooooooooooooooooooooooooo     %%%%%%%%%%%%%%",
"%%%%%%%%%%%%%%    ooooooooooooooooooooooooooo     %%%%%%%%%%%%%%",
"%%%%%%%%%     XXXXoooooooooooooooooooooooooooXXXXX    %%%%%%%%%%",
"%%%%%%%%%     XXXXoooooooooooooooooooooooooooXXXXX    %%%%%%%%%%",
"%%%%%%%%%     XXXXoooooooooooooooooooooooooooXXXXX    %%%%%%%%%%",
"%%%%%%%%%     XXXXoooooooooooooooooooooooooooXXXXX    %%%%%%%%%%",
"%%%%%%%%%     XXXXoooooooooooooooooooooooooooXXXXX    %%%%%%%%%%",
"%%%%%%%%%     XXXXoooooooooooooooooooooooooooXXXXX    %%%%%%%%%%",
"%%%%%%%%%     XXXXoooooooooooooooooooooooooooXXXXX    %%%%%%%%%%",
"%%%%%%%%%     XXXXoooooooooooooooooooooooooooXXXXX    %%%%%%%%%%",
"%%%%%         XXXXoooooooooooooooooooooooooooXXXXX         %%%%%",
"%%%%%         XXXXoooooooooooooooooooooooooooXXXXX         %%%%%",
"%%%%%         XXXXoooooooooooooooooooooooooooXXXXX         %%%%%",
"%%%%%         XXXXoooooooooooooooooooooooooooXXXXX         %%%%%",
"%%%%%             XXXXX$$$$$$$$$$$$$$$$$$XXXX              %%%%%",
"%%%%%             XXXXX$$$$$$$$$$$$$$$$$$XXXX              %%%%%",
"%%%%%             XXXXX$$$$$$$$$$$$$$$$$$XXXX              %%%%%",
"%%%%%             XXXXX$$$$$$$$$$$$$$$$$$XXXX              %%%%%",
"     ####                                             #####    %",
"     ####                                             #####    %",
"     ####                                             #####    %",
"     ####                                             #####    %",
"     +++++++++                                    +++++++++    %",
"     +++++++++                                    +++++++++    %",
"     +++++++++                                    +++++++++    %",
"     +++++++++                                    +++++++++    %",
"%%%%%                                                      %%%%%",
"%%%%%                                                      %%%%%",
"%%%%%                                                      %%%%%",
"%%%%%                                                      %%%%%",
"%%%%%%%%%     $$$$OOOOO                  OOOO$$$$$    %%%%%%%%%%",
"%%%%%%%%%     $$$$OOOOO                  OOOO$$$$$    %%%%%%%%%%",
"%%%%%%%%%     $$$$OOOOO                  OOOO$$$$$    %%%%%%%%%%",
"%%%%%%%%%     $$$$OOOOO                  OOOO$$$$$    %%%%%%%%%%",
"%%%%%    XXXXX         $$$$$$$$$$$$$$$$$$         XXXX     %%%%%",
"%%%%%    XXXXX         $$$$$$$$$$$$$$$$$$         XXXX     %%%%%",
"%%%%%    XXXXX         $$$$$$$$$$$$$$$$$$         XXXX     %%%%%",
"%%%%%    XXXXX         $$$$$$$$$$$$$$$$$$         XXXX     %%%%%",
"     ####     XXXX     OOOOOOOOOOOOOOOOOO    XXXXX    #####    %",
"     ####     XXXX     OOOOOOOOOOOOOOOOOO    XXXXX    #####    %",
"     ####     XXXX     OOOOOOOOOOOOOOOOOO    XXXXX    #####    %",
"     ####     XXXX     OOOOOOOOOOOOOOOOOO    XXXXX    #####    %",
"     ####              $$$$$$$$$$$$$$$$$$             #####    %",
"     ####              $$$$$$$$$$$$$$$$$$             #####    %",
"     ####              $$$$$$$$$$$$$$$$$$             #####    %",
"     ####              $$$$$$$$$$$$$$$$$$             #####    %",
"%%%%%                                                      %%%%%",
"%%%%%                                                      %%%%%",
"%%%%%                                                      %%%%%",
"%%%%%                                                      %%%%%",
"%%%%%%%%%     ....@@@@@                  @@@@.....    %%%%%%%%%%",
"%%%%%%%%%     ....@@@@@                  @@@@.....    %%%%%%%%%%",
"%%%%%%%%%     ....@@@@@                  @@@@.....    %%%%%%%%%%",
"%%%%%%%%%     ....@@@@@                  @@@@.....    %%%%%%%%%%",
"%%%%%%%%%%%%%%             %%%%%%%%%              %%%%%%%%%%%%%%",
"%%%%%%%%%%%%%%             %%%%%%%%%              %%%%%%%%%%%%%%",
"%%%%%%%%%%%%%%             %%%%%%%%%              %%%%%%%%%%%%%%",
"%%%%%%%%%%%%%%             %%%%%%%%%              %%%%%%%%%%%%%%"
};
