/* XPM */
static char *f03e81d4a43f4d6df6ff9ac9bce3cc83gNgQOMoA4dMs3Pyy[] = {
/* columns rows colors chars-per-pixel */
"64 64 9 1 ",
"  c #000001",
". c #383878",
"X c #C03838",
"o c #F86848",
"O c #D89070",
"+ c #70A0C0",
"@ c #F8C090",
"# c gray91",
"$ c white",
/* pixels */
"$$$$$$$$$$$$$$$$$$                           $$$$$$$$$$$$$$$$$$$",
"$$$$$$$$$$$$$$$$$$                           $$$$$$$$$$$$$$$$$$$",
"$$$$$$$$$$$$$$$$$$                           $$$$$$$$$$$$$$$$$$$",
"$$$$$$$$$$$$$$$$$$                           $$$$$$$$$$$$$$$$$$$",
"$$$$$$$$$$$$$$    ooooooooooooooooooooooooooo     $$$$$$$$$$$$$$",
"$$$$$$$$$$$$$$    ooooooooooooooooooooooooooo     $$$$$$$$$$$$$$",
"$$$$$$$$$$$$$$    ooooooooooooooooooooooooooo     $$$$$$$$$$$$$$",
"$$$$$$$$$$$$$$    ooooooooooooooooooooooooooo     $$$$$$$$$$$$$$",
"$$$$$$$$$     ####ooooooooooooooooooooooooooo#####    $$$$$$$$$$",
"$$$$$$$$$     ####ooooooooooooooooooooooooooo#####    $$$$$$$$$$",
"$$$$$$$$$     ####ooooooooooooooooooooooooooo#####    $$$$$$$$$$",
"$$$$$$$$$     ####ooooooooooooooooooooooooooo#####    $$$$$$$$$$",
"$$$$$$$$$     XXXX#####oooo         ooooo####XXXXX    $$$$$$$$$$",
"$$$$$$$$$     XXXX#####oooo         ooooo####XXXXX    $$$$$$$$$$",
"$$$$$$$$$     XXXX#####oooo         ooooo####XXXXX    $$$$$$$$$$",
"$$$$$$$$$     XXXX#####oooo         ooooo####XXXXX    $$$$$$$$$$",
"$$$$$         XXXXXXXXX                  XXXXXXXXX         $$$$$",
"$$$$$         XXXXXXXXX                  XXXXXXXXX         $$$$$",
"$$$$$         XXXXXXXXX                  XXXXXXXXX         $$$$$",
"$$$$$         XXXXXXXXX                  XXXXXXXXX         $$$$$",
"$$$$$                  OOOOOOOOOOOOOOOOOO                  $$$$$",
"$$$$$                  OOOOOOOOOOOOOOOOOO                  $$$$$",
"$$$$$                  OOOOOOOOOOOOOOOOOO                  $$$$$",
"$$$$$                  OOOOOOOOOOOOOOOOOO                  $$$$$",
"     OOOO     OOOO@@@@@@@@@@@@@@@@@@@@@@@@@@@OOOOO    OOOOO    $",
"     OOOO     OOOO@@@@@@@@@@@@@@@@@@@@@@@@@@@OOOOO    OOOOO    $",
"     OOOO     OOOO@@@@@@@@@@@@@@@@@@@@@@@@@@@OOOOO    OOOOO    $",
"     OOOO     OOOO@@@@@@@@@@@@@@@@@@@@@@@@@@@OOOOO    OOOOO    $",
"     OOOO@@@@@@@@@@@@@@    @@@@@@@@@     @@@@@@@@@@@@@OOOOO    $",
"     OOOO@@@@@@@@@@@@@@    @@@@@@@@@     @@@@@@@@@@@@@OOOOO    $",
"     OOOO@@@@@@@@@@@@@@    @@@@@@@@@     @@@@@@@@@@@@@OOOOO    $",
"     OOOO@@@@@@@@@@@@@@    @@@@@@@@@     @@@@@@@@@@@@@OOOOO    $",
"$$$$$         @@@@@@@@@    @@@@@@@@@     @@@@@@@@@         $$$$$",
"$$$$$         @@@@@@@@@    @@@@@@@@@     @@@@@@@@@         $$$$$",
"$$$$$         @@@@@@@@@    @@@@@@@@@     @@@@@@@@@         $$$$$",
"$$$$$         @@@@@@@@@    @@@@@@@@@     @@@@@@@@@         $$$$$",
"$$$$$$$$$         @@@@@@@@@OOOOOOOOO@@@@@@@@@         $$$$$$$$$$",
"$$$$$$$$$         @@@@@@@@@OOOOOOOOO@@@@@@@@@         $$$$$$$$$$",
"$$$$$$$$$         @@@@@@@@@OOOOOOOOO@@@@@@@@@         $$$$$$$$$$",
"$$$$$$$$$         @@@@@@@@@OOOOOOOOO@@@@@@@@@         $$$$$$$$$$",
"$$$$$         ####XXXXX                  XXXX#####         $$$$$",
"$$$$$         ####XXXXX                  XXXX#####         $$$$$",
"$$$$$         ####XXXXX                  XXXX#####         $$$$$",
"$$$$$         ####XXXXX                  XXXX#####         $$$$$",
"     @@@@@@@@@    #########XXXXXXXXX#########     @@@@@@@@@    $",
"     @@@@@@@@@    #########XXXXXXXXX#########     @@@@@@@@@    $",
"     @@@@@@@@@    #########XXXXXXXXX#########     @@@@@@@@@    $",
"     @@@@@@@@@    #########XXXXXXXXX#########     @@@@@@@@@    $",
"     OOOOOOOOO    ooooooooo#########ooooooooo     OOOOOOOOO    $",
"     OOOOOOOOO    ooooooooo#########ooooooooo     OOOOOOOOO    $",
"     OOOOOOOOO    ooooooooo#########ooooooooo     OOOOOOOOO    $",
"     OOOOOOOOO    ooooooooo#########ooooooooo     OOOOOOOOO    $",
"$$$$$                                                      $$$$$",
"$$$$$                                                      $$$$$",
"$$$$$                                                      $$$$$",
"$$$$$                                                      $$$$$",
"$$$$$$$$$     ....+++++                  ++++.....    $$$$$$$$$$",
"$$$$$$$$$     ....+++++                  ++++.....    $$$$$$$$$$",
"$$$$$$$$$     ....+++++                  ++++.....    $$$$$$$$$$",
"$$$$$$$$$     ....+++++                  ++++.....    $$$$$$$$$$",
"$$$$$$$$$$$$$$             $$$$$$$$$              $$$$$$$$$$$$$$",
"$$$$$$$$$$$$$$             $$$$$$$$$              $$$$$$$$$$$$$$",
"$$$$$$$$$$$$$$             $$$$$$$$$              $$$$$$$$$$$$$$",
"$$$$$$$$$$$$$$             $$$$$$$$$              $$$$$$$$$$$$$$"
};
