/* XPM */
static char *_aad9d63ccf34412f72219dea47ae1d62oEjicEMCQWyi3pA[] = {
/* columns rows colors chars-per-pixel */
"64 64 10 1 ",
"  c #000001",
". c #383878",
"X c #C03838",
"o c #F86848",
"O c #B89838",
"+ c #D89070",
"@ c #70A0C0",
"# c #F8C090",
"$ c gray91",
"% c white",
/* pixels */
"%%%%%%%%%%%%%%%%%                           %%%%%%%%%%%%%%%%%%%%",
"%%%%%%%%%%%%%%%%%                           %%%%%%%%%%%%%%%%%%%%",
"%%%%%%%%%%%%%%%%%                           %%%%%%%%%%%%%%%%%%%%",
"%%%%%%%%%%%%%%%%%                           %%%%%%%%%%%%%%%%%%%%",
"%%%%%%%%%%%%%    ooooooooooooooooooooooooooo     %%%%%%%%%%%%%%%",
"%%%%%%%%%%%%%    ooooooooooooooooooooooooooo     %%%%%%%%%%%%%%%",
"%%%%%%%%%%%%%    ooooooooooooooooooooooooooo     %%%%%%%%%%%%%%%",
"%%%%%%%%%%%%%    ooooooooooooooooooooooooooo     %%%%%%%%%%%%%%%",
"%%%%%%%%     oooooooooooooooooooooooooooooooooooo    %%%%%%%%%%%",
"%%%%%%%%     oooooooooooooooooooooooooooooooooooo    %%%%%%%%%%%",
"%%%%%%%%     oooooooooooooooooooooooooooooooooooo    %%%%%%%%%%%",
"%%%%%%%%     oooooooooooooooooooooooooooooooooooo    %%%%%%%%%%%",
"%%%%%%%%         ooooooooooooooooooooooooooo$$$$$         %%%%%%",
"%%%%%%%%         ooooooooooooooooooooooooooo$$$$$         %%%%%%",
"%%%%%%%%         ooooooooooooooooooooooooooo$$$$$         %%%%%%",
"%%%%%%%%         ooooooooooooooooooooooooooo$$$$$         %%%%%%",
"%%%%             XXXXXXXXXXXXXXXXXXXXXXX$$$$$$$$$$$$$$$$$$    %%",
"%%%%             XXXXXXXXXXXXXXXXXXXXXXX$$$$$$$$$$$$$$$$$$    %%",
"%%%%             XXXXXXXXXXXXXXXXXXXXXXX$$$$$$$$$$$$$$$$$$    %%",
"%%%%             XXXXXXXXXXXXXXXXXXXXXXX$$$$$$$$$$$$$$$$$$    %%",
"%%%%                               XXXXXXXXXXXXXX         %%%%%%",
"%%%%                               XXXXXXXXXXXXXX         %%%%%%",
"%%%%                               XXXXXXXXXXXXXX         %%%%%%",
"%%%%                               XXXXXXXXXXXXXX         %%%%%%",
"%%%%%%%%     ++++     +++++++++                           %%%%%%",
"%%%%%%%%     ++++     +++++++++                           %%%%%%",
"%%%%%%%%     ++++     +++++++++                           %%%%%%",
"%%%%%%%%     ++++     +++++++++                           %%%%%%",
"%%%%%%%%     ####     #########    +++++++++         %%%%%%%%%%%",
"%%%%%%%%     ####     #########    +++++++++         %%%%%%%%%%%",
"%%%%%%%%     ####     #########    +++++++++         %%%%%%%%%%%",
"%%%%%%%%     ####     #########    +++++++++         %%%%%%%%%%%",
"%%%%%%%%     ###########################++++     %%%%%%%%%%%%%%%",
"%%%%%%%%     ###########################++++     %%%%%%%%%%%%%%%",
"%%%%%%%%     ###########################++++     %%%%%%%%%%%%%%%",
"%%%%%%%%     ###########################++++     %%%%%%%%%%%%%%%",
"%%%%%%%%%%%%%    +++++#############              %%%%%%%%%%%%%%%",
"%%%%%%%%%%%%%    +++++#############              %%%%%%%%%%%%%%%",
"%%%%%%%%%%%%%    +++++#############              %%%%%%%%%%%%%%%",
"%%%%%%%%%%%%%    +++++#############              %%%%%%%%%%%%%%%",
"%%%%%%%%%%%%%%%%%                       $$$$$$$$$    %%%%%%%%%%%",
"%%%%%%%%%%%%%%%%%                       $$$$$$$$$    %%%%%%%%%%%",
"%%%%%%%%%%%%%%%%%                       $$$$$$$$$    %%%%%%%%%%%",
"%%%%%%%%%%%%%%%%%                       $$$$$$$$$    %%%%%%%%%%%",
"%%%%%%%%%%%%%%%%%     XXXX              OOOOOOOOO    %%%%%%%%%%%",
"%%%%%%%%%%%%%%%%%     XXXX              OOOOOOOOO    %%%%%%%%%%%",
"%%%%%%%%%%%%%%%%%     XXXX              OOOOOOOOO    %%%%%%%%%%%",
"%%%%%%%%%%%%%%%%%     XXXX              OOOOOOOOO    %%%%%%%%%%%",
"%%%%%%%%%%%%%%%%%%%%%%    #########     $$$$$$$$$    %%%%%%%%%%%",
"%%%%%%%%%%%%%%%%%%%%%%    #########     $$$$$$$$$    %%%%%%%%%%%",
"%%%%%%%%%%%%%%%%%%%%%%    #########     $$$$$$$$$    %%%%%%%%%%%",
"%%%%%%%%%%%%%%%%%%%%%%    #########     $$$$$$$$$    %%%%%%%%%%%",
"%%%%%%%%%%%%%%%%%         #########              %%%%%%%%%%%%%%%",
"%%%%%%%%%%%%%%%%%         #########              %%%%%%%%%%%%%%%",
"%%%%%%%%%%%%%%%%%         #########              %%%%%%%%%%%%%%%",
"%%%%%%%%%%%%%%%%%         #########              %%%%%%%%%%%%%%%",
"%%%%%%%%%%%%%    @@@@@....         .....    %%%%%%%%%%%%%%%%%%%%",
"%%%%%%%%%%%%%    @@@@@....         .....    %%%%%%%%%%%%%%%%%%%%",
"%%%%%%%%%%%%%    @@@@@....         .....    %%%%%%%%%%%%%%%%%%%%",
"%%%%%%%%%%%%%    @@@@@....         .....    %%%%%%%%%%%%%%%%%%%%",
"%%%%%%%%%%%%%%%%%                       %%%%%%%%%%%%%%%%%%%%%%%%",
"%%%%%%%%%%%%%%%%%                       %%%%%%%%%%%%%%%%%%%%%%%%",
"%%%%%%%%%%%%%%%%%                       %%%%%%%%%%%%%%%%%%%%%%%%",
"%%%%%%%%%%%%%%%%%                       %%%%%%%%%%%%%%%%%%%%%%%%"
};
